<svg width="1080" height="152" viewBox="0 0 1080 152" fill="none" xmlns="http://www.w3.org/2000/svg">
<rect x="378.551" y="0.5" width="151" height="151" rx="9.5" fill="white" stroke="black"/>
<path d="M491.201 79.8049H491.038C489.084 79.8049 487.505 81.3844 487.505 83.3222V83.6968C487.505 88.7285 484.818 93.3858 480.454 95.9098L461.076 107.097C456.712 109.621 451.338 109.621 446.957 107.097L427.579 95.9098C423.215 93.3858 420.528 88.7285 420.528 83.6968V83.3222C420.528 81.3681 418.949 79.7886 417.011 79.7886H416.848C414.894 79.7886 413.314 81.3518 413.314 83.3059V83.3222V87.8655C413.314 92.9136 416.001 97.5708 420.365 100.095L446.957 115.451C451.322 117.975 456.695 117.975 461.076 115.451L487.668 100.095C492.048 97.5708 494.735 92.9136 494.735 87.8655V83.3222C494.735 81.3844 493.155 79.8049 491.201 79.8049Z" fill="#272532"/>
<path d="M491.201 73.5033H491.038C489.084 73.5033 487.505 71.9237 487.505 69.9859V68.9112C487.505 63.8794 484.818 59.2221 480.454 56.6981L461.076 45.5109C456.712 42.9869 451.338 42.9869 446.957 45.5109L427.579 56.6981C423.215 59.2221 420.528 63.8794 420.528 68.9112V69.9859C420.528 71.94 418.949 73.5033 417.011 73.5033H416.848C414.894 73.5033 413.314 71.94 413.314 69.9859V69.9696V64.7424C413.314 59.6944 416.001 55.0371 420.365 52.5131L446.957 37.1572C451.322 34.6332 456.695 34.6332 461.076 37.1572L487.668 52.5131C492.048 55.0371 494.735 59.6944 494.735 64.7424V69.9859C494.735 71.94 493.155 73.5033 491.201 73.5033Z" fill="#272532"/>
<path d="M474.706 69.7744C470.342 67.2503 464.952 67.2503 460.588 69.7744L443.555 79.61L437.106 75.8809C432.742 73.3569 427.352 73.3569 422.988 75.8809L415.953 79.9356C416.246 79.8542 416.539 79.8217 416.832 79.8217H416.995C418.949 79.8217 420.513 81.4012 420.513 83.3553V85.6351L422.972 84.2184C427.059 81.8572 432.058 81.6943 436.292 83.795H436.276C436.65 83.9741 437.041 84.1532 437.416 84.3324C439.858 85.5211 442.203 86.9052 444.434 88.4522L456.452 95.3893C460.816 97.9133 463.503 102.571 463.503 107.619V112.064L470.733 107.895V103.45C470.733 98.4181 468.046 93.7609 463.682 91.2368L450.752 83.7787L460.572 78.0955C464.936 75.5715 470.326 75.5715 474.69 78.0955L487.489 85.4885V83.3553C487.489 81.4012 489.069 79.8217 491.007 79.8217H491.169C491.707 79.8217 492.244 79.9519 492.733 80.1962L474.706 69.7744Z" fill="#272532"/>
<rect x="201" width="152" height="152" rx="10" fill="#86CD74"/>
<path d="M314.151 79.8049H313.988C312.034 79.8049 310.454 81.3844 310.454 83.3222V83.6968C310.454 88.7285 307.767 93.3858 303.403 95.9098L284.025 107.097C279.661 109.621 274.287 109.621 269.907 107.097L250.529 95.9098C246.164 93.3858 243.478 88.7285 243.478 83.6968V83.3222C243.478 81.3681 241.898 79.7886 239.96 79.7886H239.797C237.843 79.7886 236.264 81.3518 236.264 83.3059V83.3222V87.8655C236.264 92.9136 238.951 97.5708 243.315 100.095L269.907 115.451C274.271 117.975 279.645 117.975 284.025 115.451L310.617 100.095C314.997 97.5708 317.684 92.9136 317.684 87.8655V83.3222C317.684 81.3844 316.105 79.8049 314.151 79.8049Z" fill="white"/>
<path d="M314.151 73.5033H313.988C312.034 73.5033 310.454 71.9237 310.454 69.9859V68.9112C310.454 63.8794 307.767 59.2221 303.403 56.6981L284.025 45.5109C279.661 42.9869 274.287 42.9869 269.907 45.5109L250.529 56.6981C246.164 59.2221 243.478 63.8794 243.478 68.9112V69.9859C243.478 71.94 241.898 73.5033 239.96 73.5033H239.797C237.843 73.5033 236.264 71.94 236.264 69.9859V69.9696V64.7424C236.264 59.6944 238.951 55.0371 243.315 52.5131L269.907 37.1572C274.271 34.6332 279.645 34.6332 284.025 37.1572L310.617 52.5131C314.997 55.0371 317.684 59.6944 317.684 64.7424V69.9859C317.684 71.94 316.105 73.5033 314.151 73.5033Z" fill="white"/>
<path d="M297.655 69.7744C293.291 67.2503 287.901 67.2503 283.537 69.7744L266.504 79.61L260.055 75.8809C255.691 73.3569 250.301 73.3569 245.937 75.8809L238.902 79.9356C239.195 79.8542 239.489 79.8217 239.782 79.8217H239.945C241.899 79.8217 243.462 81.4012 243.462 83.3553V85.6351L245.921 84.2184C250.008 81.8572 255.007 81.6943 259.241 83.795H259.225C259.599 83.9741 259.99 84.1532 260.365 84.3324C262.807 85.5211 265.152 86.9052 267.383 88.4522L279.401 95.3893C283.765 97.9133 286.452 102.571 286.452 107.619V112.064L293.682 107.895V103.45C293.682 98.4181 290.995 93.7609 286.631 91.2368L273.701 83.7787L283.521 78.0955C287.885 75.5715 293.275 75.5715 297.639 78.0955L310.438 85.4885V83.3553C310.438 81.4012 312.018 79.8217 313.956 79.8217H314.119C314.656 79.8217 315.193 79.9519 315.682 80.1962L297.655 69.7744Z" fill="white"/>
<rect x="201" width="152" height="152" rx="10" fill="#86CD74"/>
<path d="M314.151 79.8049H313.988C312.034 79.8049 310.454 81.3844 310.454 83.3222V83.6968C310.454 88.7285 307.767 93.3858 303.403 95.9098L284.025 107.097C279.661 109.621 274.287 109.621 269.907 107.097L250.529 95.9098C246.164 93.3858 243.478 88.7285 243.478 83.6968V83.3222C243.478 81.3681 241.898 79.7886 239.96 79.7886H239.797C237.843 79.7886 236.264 81.3518 236.264 83.3059V83.3222V87.8655C236.264 92.9136 238.951 97.5708 243.315 100.095L269.907 115.451C274.271 117.975 279.645 117.975 284.025 115.451L310.617 100.095C314.997 97.5708 317.684 92.9136 317.684 87.8655V83.3222C317.684 81.3844 316.105 79.8049 314.151 79.8049Z" fill="white"/>
<path d="M314.151 73.5033H313.988C312.034 73.5033 310.454 71.9237 310.454 69.9859V68.9112C310.454 63.8794 307.767 59.2221 303.403 56.6981L284.025 45.5109C279.661 42.9869 274.287 42.9869 269.907 45.5109L250.529 56.6981C246.164 59.2221 243.478 63.8794 243.478 68.9112V69.9859C243.478 71.94 241.898 73.5033 239.96 73.5033H239.797C237.843 73.5033 236.264 71.94 236.264 69.9859V69.9696V64.7424C236.264 59.6944 238.951 55.0371 243.315 52.5131L269.907 37.1572C274.271 34.6332 279.645 34.6332 284.025 37.1572L310.617 52.5131C314.997 55.0371 317.684 59.6944 317.684 64.7424V69.9859C317.684 71.94 316.105 73.5033 314.151 73.5033Z" fill="white"/>
<path d="M297.655 69.7744C293.291 67.2503 287.901 67.2503 283.537 69.7744L266.504 79.61L260.055 75.8809C255.691 73.3569 250.301 73.3569 245.937 75.8809L238.902 79.9356C239.195 79.8542 239.489 79.8217 239.782 79.8217H239.945C241.899 79.8217 243.462 81.4012 243.462 83.3553V85.6351L245.921 84.2184C250.008 81.8572 255.007 81.6943 259.241 83.795H259.225C259.599 83.9741 259.99 84.1532 260.365 84.3324C262.807 85.5211 265.152 86.9052 267.383 88.4522L279.401 95.3893C283.765 97.9133 286.452 102.571 286.452 107.619V112.064L293.682 107.895V103.45C293.682 98.4181 290.995 93.7609 286.631 91.2368L273.701 83.7787L283.521 78.0955C287.885 75.5715 293.275 75.5715 297.639 78.0955L310.438 85.4885V83.3553C310.438 81.4012 312.018 79.8217 313.956 79.8217H314.119C314.656 79.8217 315.193 79.9519 315.682 80.1962L297.655 69.7744Z" fill="white"/>
<rect x="25.5" y="0.5" width="151" height="151" rx="9.5" fill="white" stroke="#21B459"/>
<path fill-rule="evenodd" clip-rule="evenodd" d="M139.392 80.0289C140.732 80.5302 141.684 81.8185 141.684 83.3227V87.8659C141.684 92.914 138.997 97.5713 134.616 100.095L108.024 115.451C103.644 117.975 98.2702 117.975 93.9061 115.451L67.3141 100.095C62.95 97.5713 60.2631 92.914 60.2631 87.8659V83.3227V83.3064C60.2631 81.6254 61.432 80.2336 63.0027 79.8774L69.9365 75.8809C74.3006 73.3568 79.6907 73.3568 84.0548 75.8809L90.5033 79.6099L107.536 69.7743C111.901 67.2503 117.291 67.2503 121.655 69.7743L139.392 80.0289ZM67.5999 85.5552C68.1718 89.8553 70.707 93.7004 74.528 95.9103L93.9061 107.097C98.2865 109.621 103.66 109.621 108.024 107.097L110.33 105.766C109.761 101.451 107.225 97.601 103.4 95.3892L91.3827 88.4522C89.1517 86.9052 86.8068 85.5211 84.3642 84.3323C84.1769 84.2427 83.9856 84.1532 83.7942 84.0636C83.6029 83.9741 83.4116 83.8845 83.2243 83.795H83.2406C79.0068 81.6943 74.0075 81.8571 69.9202 84.2183L67.5999 85.5552ZM117.559 101.593L127.402 95.9103C131.259 93.6799 133.806 89.7838 134.346 85.4354L121.639 78.0955C117.274 75.5715 111.884 75.5715 107.52 78.0955L97.7009 83.7787L110.63 91.2368C114.452 93.4469 116.987 97.2926 117.559 101.593ZM134.438 84.3614C134.448 84.1408 134.453 83.9194 134.453 83.6972V83.3227C134.453 82.402 134.81 81.5621 135.394 80.9341C134.802 81.5662 134.438 82.4176 134.438 83.3553V84.3614ZM138.15 73.5033H137.987C136.033 73.5033 134.453 71.9237 134.453 69.9859V68.9111C134.453 63.8794 131.767 59.2221 127.402 56.6981L108.024 45.5109C103.66 42.9869 98.2865 42.9869 93.9061 45.5109L74.528 56.6981C70.1638 59.2221 67.477 63.8794 67.477 68.9111V69.9859C67.477 71.94 65.8974 73.5033 63.9596 73.5033H63.7968C61.8427 73.5033 60.2631 71.94 60.2631 69.9859V69.9696V64.7424C60.2631 59.6943 62.95 55.0371 67.3141 52.5131L93.9061 37.1572C98.2702 34.6331 103.644 34.6331 108.024 37.1572L134.616 52.5131C138.997 55.0371 141.684 59.6943 141.684 64.7424V69.9859C141.684 71.94 140.104 73.5033 138.15 73.5033Z" fill="white"/>
<path fill-rule="evenodd" clip-rule="evenodd" d="M139.392 80.0289C140.732 80.5302 141.684 81.8185 141.684 83.3227V87.8659C141.684 92.914 138.997 97.5713 134.616 100.095L108.024 115.451C103.644 117.975 98.2702 117.975 93.9061 115.451L67.3141 100.095C62.95 97.5713 60.2631 92.914 60.2631 87.8659V83.3227V83.3064C60.2631 81.6254 61.432 80.2336 63.0027 79.8774L69.9365 75.8809C74.3006 73.3568 79.6907 73.3568 84.0548 75.8809L90.5033 79.6099L107.536 69.7743C111.901 67.2503 117.291 67.2503 121.655 69.7743L139.392 80.0289ZM67.5999 85.5552C68.1718 89.8553 70.707 93.7004 74.528 95.9103L93.9061 107.097C98.2865 109.621 103.66 109.621 108.024 107.097L110.33 105.766C109.761 101.451 107.225 97.601 103.4 95.3892L91.3827 88.4522C89.1517 86.9052 86.8068 85.5211 84.3642 84.3323C84.1769 84.2427 83.9856 84.1532 83.7942 84.0636C83.6029 83.9741 83.4116 83.8845 83.2243 83.795H83.2406C79.0068 81.6943 74.0075 81.8571 69.9202 84.2183L67.5999 85.5552ZM117.559 101.593L127.402 95.9103C131.259 93.6799 133.806 89.7838 134.346 85.4354L121.639 78.0955C117.274 75.5715 111.884 75.5715 107.52 78.0955L97.7009 83.7787L110.63 91.2368C114.452 93.4469 116.987 97.2926 117.559 101.593ZM134.438 84.3614C134.448 84.1408 134.453 83.9194 134.453 83.6972V83.3227C134.453 82.402 134.81 81.5621 135.394 80.9341C134.802 81.5662 134.438 82.4176 134.438 83.3553V84.3614ZM138.15 73.5033H137.987C136.033 73.5033 134.453 71.9237 134.453 69.9859V68.9111C134.453 63.8794 131.767 59.2221 127.402 56.6981L108.024 45.5109C103.66 42.9869 98.2865 42.9869 93.9061 45.5109L74.528 56.6981C70.1638 59.2221 67.477 63.8794 67.477 68.9111V69.9859C67.477 71.94 65.8974 73.5033 63.9596 73.5033H63.7968C61.8427 73.5033 60.2631 71.94 60.2631 69.9859V69.9696V64.7424C60.2631 59.6943 62.95 55.0371 67.3141 52.5131L93.9061 37.1572C98.2702 34.6331 103.644 34.6331 108.024 37.1572L134.616 52.5131C138.997 55.0371 141.684 59.6943 141.684 64.7424V69.9859C141.684 71.94 140.104 73.5033 138.15 73.5033Z" fill="url(#paint0_linear_605_105)"/>
<rect x="555" width="152" height="152" rx="10" fill="#21B459"/>
<path d="M668.114 79.4972H667.951C665.999 79.4972 664.421 81.0752 664.421 83.0112V83.3853C664.421 88.4122 661.737 93.065 657.377 95.5866L638.018 106.763C633.658 109.284 628.289 109.284 623.913 106.763L604.554 95.5866C600.194 93.065 597.51 88.4122 597.51 83.3853V83.0112C597.51 81.059 595.932 79.481 593.996 79.481H593.833C591.881 79.481 590.303 81.0427 590.303 82.9949V83.0112V87.55C590.303 92.5932 592.987 97.2459 597.347 99.7675L623.913 115.108C628.273 117.63 633.641 117.63 638.018 115.108L664.584 99.7675C668.96 97.2459 671.644 92.5932 671.644 87.55V83.0112C671.644 81.0752 670.066 79.4972 668.114 79.4972Z" fill="white"/>
<path d="M668.114 73.202H667.951C665.999 73.202 664.421 71.6239 664.421 69.688V68.6143C664.421 63.5874 661.737 58.9347 657.377 56.4131L638.018 45.2368C633.658 42.7152 628.289 42.7152 623.913 45.2368L604.554 56.4131C600.194 58.9347 597.51 63.5874 597.51 68.6143V69.688C597.51 71.6402 595.932 73.202 593.996 73.202H593.833C591.881 73.202 590.303 71.6402 590.303 69.688V69.6718V64.4496C590.303 59.4065 592.987 54.7537 597.347 52.2322L623.913 36.8912C628.273 34.3696 633.641 34.3696 638.018 36.8912L664.584 52.2322C668.96 54.7537 671.644 59.4065 671.644 64.4496V69.688C671.644 71.6402 670.066 73.202 668.114 73.202Z" fill="white"/>
<path d="M651.633 69.4766C647.274 66.9551 641.889 66.9551 637.529 69.4766L620.512 79.3027L614.07 75.5772C609.71 73.0557 604.325 73.0557 599.965 75.5772L592.938 79.628C593.23 79.5467 593.523 79.5142 593.816 79.5142H593.979C595.931 79.5142 597.493 81.0922 597.493 83.0444V85.3219L599.949 83.9066C604.032 81.5477 609.027 81.385 613.257 83.4836H613.24C613.614 83.6626 614.005 83.8415 614.379 84.0205C616.819 85.2081 619.162 86.5909 621.391 88.1363L633.397 95.0666C637.757 97.5882 640.441 102.241 640.441 107.284V111.725L647.664 107.561V103.119C647.664 98.0925 644.98 93.4398 640.62 90.9182L627.703 83.4674L637.513 77.7897C641.872 75.2681 647.257 75.2681 651.617 77.7897L664.404 85.1755V83.0444C664.404 81.0922 665.982 79.5142 667.918 79.5142H668.081C668.618 79.5142 669.154 79.6443 669.642 79.8883L651.633 69.4766Z" fill="white"/>
<rect x="731.725" width="323.184" height="152" rx="10" fill="#86CD74"/>
<path d="M875.232 68.5095V47.4287H879.954V55.6763H888.445V47.4287H893.167V68.5095H888.445V60.1671H879.954V68.5095H875.232Z" fill="white"/>
<path d="M902.845 68.8388C901.912 68.8456 900.99 68.6436 900.145 68.2476C899.3 67.8516 898.555 67.2716 897.963 66.5501C896.669 65.0243 895.959 63.0887 895.959 61.0882C895.959 59.0877 896.669 57.1521 897.963 55.6262C898.555 54.9048 899.3 54.3248 900.145 53.9288C900.99 53.5328 901.912 53.3308 902.845 53.3375C903.613 53.3047 904.378 53.4512 905.08 53.7654C905.781 54.0797 906.4 54.553 906.887 55.1479V53.6633H911.369V68.5089H906.887V67.0244C906.4 67.62 905.782 68.0941 905.081 68.4091C904.379 68.7241 903.614 68.8712 902.845 68.8388V68.8388ZM901.406 63.7295C901.724 64.0582 902.105 64.3197 902.525 64.4982C902.946 64.6768 903.399 64.7688 903.856 64.7688C904.313 64.7688 904.765 64.6768 905.186 64.4982C905.607 64.3197 905.988 64.0582 906.305 63.7295C906.911 62.9824 907.242 62.0499 907.242 61.0882C907.242 60.1265 906.911 59.1939 906.305 58.4469C905.988 58.1182 905.607 57.8567 905.186 57.6782C904.765 57.4996 904.313 57.4076 903.856 57.4076C903.399 57.4076 902.946 57.4996 902.525 57.6782C902.105 57.8567 901.724 58.1182 901.406 58.4469C900.801 59.1939 900.47 60.1265 900.47 61.0882C900.47 62.0499 900.801 62.9824 901.406 63.7295V63.7295Z" fill="white"/>
<path d="M922.06 68.8394C921.025 68.8638 919.996 68.682 919.033 68.3046C918.069 67.9273 917.19 67.3619 916.447 66.6414C914.983 65.1641 914.162 63.1685 914.162 61.0888C914.162 59.009 914.983 57.0134 916.447 55.5361C917.19 54.8156 918.069 54.2503 919.033 53.8729C919.996 53.4955 921.025 53.3137 922.06 53.3381C923.549 53.3298 925.01 53.743 926.274 54.5299C927.521 55.2771 928.524 56.3701 929.161 57.6763L925.239 59.7382C924.588 58.2537 923.529 57.5114 922.064 57.5114C921.615 57.5026 921.169 57.588 920.755 57.762C920.341 57.936 919.968 58.1948 919.66 58.5217C919.028 59.2225 918.678 60.1327 918.678 61.0764C918.678 62.0201 919.028 62.9303 919.66 63.6311C919.968 63.9575 920.341 64.2156 920.755 64.3889C921.169 64.5622 921.615 64.6468 922.064 64.6373C923.529 64.6373 924.588 63.895 925.239 62.4104L929.161 64.4723C928.525 65.7806 927.522 66.8753 926.274 67.6229C925.013 68.4185 923.551 68.8403 922.06 68.8394V68.8394Z" fill="white"/>
<path d="M941.567 68.5097L936.045 61.9116V68.5097H931.562V46.2412H936.045V58.9796L940.379 53.664H945.695L940.231 60.3775L947.002 68.5097H941.567Z" fill="white"/>
<path d="M879.043 99.4378V82.8726H873.682V78.3364H889.237V82.8726H883.785V99.4378H879.043Z" fill="white"/>
<path d="M895.952 99.4384H891.449V77.1699H895.952V86.1103C896.802 84.8814 898.176 84.267 900.076 84.267C901.874 84.267 903.283 84.8704 904.303 86.0773C905.323 87.2842 905.833 88.8787 905.833 90.8609V99.4384H901.334V91.6444C901.334 89.4451 900.533 88.3454 898.93 88.3454C898.518 88.3331 898.108 88.4147 897.733 88.5841C897.357 88.7534 897.024 89.006 896.761 89.3227C896.211 89.9798 895.936 90.9502 895.936 92.2341L895.952 99.4384Z" fill="white"/>
<path d="M916.326 99.7672C914.245 99.8255 912.224 99.0627 910.701 97.6435C909.183 96.2304 908.426 94.3541 908.429 92.0145C908.4 90.9886 908.583 89.9678 908.966 89.0157C909.349 88.0636 909.924 87.2006 910.656 86.4804C912.112 85.1137 914.018 84.3273 916.015 84.2695C918.011 84.2118 919.96 84.8867 921.493 86.167C922.92 87.4316 923.632 89.2186 923.629 91.5279C923.632 92.0542 923.603 92.5803 923.542 93.1032H912.763C912.808 93.4995 912.943 93.8804 913.158 94.2169C913.372 94.5534 913.66 94.8367 914 95.0455C914.719 95.4979 915.555 95.7301 916.404 95.7135C917.156 95.7286 917.901 95.5601 918.573 95.2228C919.143 94.9507 919.634 94.5377 920 94.0228L923.324 96.4971C922.582 97.5274 921.588 98.3497 920.437 98.8847C919.152 99.4898 917.746 99.7917 916.326 99.7672V99.7672ZM912.882 90.1464H919.175C919.031 89.4702 918.627 88.8777 918.049 88.4969C917.477 88.1203 916.805 87.9236 916.12 87.932C915.395 87.9203 914.681 88.1102 914.058 88.4804C913.757 88.6617 913.498 88.9033 913.295 89.1901C913.093 89.4769 912.952 89.8025 912.882 90.1464V90.1464Z" fill="white"/>
<path d="M939.099 99.4382L930.439 78.3574H935.578L941.19 92.403L946.77 78.3574H951.966L943.306 99.4382H939.099Z" fill="white"/>
<path d="M957.422 99.7679C956.488 99.7747 955.565 99.5727 954.719 99.1767C953.874 98.7807 953.128 98.2007 952.535 97.4792C951.241 95.9533 950.531 94.0178 950.531 92.0172C950.531 90.0167 951.241 88.0811 952.535 86.5553C953.128 85.8337 953.874 85.2537 954.719 84.8577C955.565 84.4617 956.488 84.2598 957.422 84.2666C958.189 84.2344 958.953 84.3812 959.654 84.6954C960.355 85.0096 960.973 85.4826 961.459 86.0769V84.5924H965.942V99.438H961.459V97.9534C960.973 98.5485 960.355 99.0222 959.655 99.3372C958.954 99.6521 958.189 99.7996 957.422 99.7679V99.7679ZM955.983 94.6585C956.3 94.9873 956.681 95.2487 957.102 95.4273C957.523 95.6058 957.975 95.6978 958.432 95.6978C958.889 95.6978 959.342 95.6058 959.763 95.4273C960.183 95.2487 960.564 94.9873 960.882 94.6585C961.485 93.9102 961.813 92.9782 961.813 92.0172C961.813 91.0563 961.485 90.1243 960.882 89.3759C960.564 89.0472 960.183 88.7857 959.763 88.6072C959.342 88.4286 958.889 88.3366 958.432 88.3366C957.975 88.3366 957.523 88.4286 957.102 88.6072C956.681 88.7857 956.3 89.0472 955.983 89.3759C955.377 90.123 955.046 91.0555 955.046 92.0172C955.046 92.979 955.377 93.9115 955.983 94.6585V94.6585Z" fill="white"/>
<path d="M969.623 99.4384V77.1699H974.106V99.4384H969.623Z" fill="white"/>
<path d="M977.787 99.4384V77.1699H982.27V99.4384H977.787Z" fill="white"/>
<path d="M992.959 99.7672C990.877 99.8255 988.857 99.0627 987.334 97.6435C985.816 96.2304 985.059 94.3541 985.061 92.0145C985.033 90.9886 985.216 89.9678 985.599 89.0157C985.982 88.0636 986.557 87.2006 987.288 86.4804C988.745 85.1137 990.651 84.3273 992.648 84.2695C994.644 84.2118 996.593 84.8867 998.126 86.167C999.552 87.4316 1000.26 89.2186 1000.26 91.5279C1000.26 92.0542 1000.24 92.5803 1000.18 93.1032H989.396C989.439 93.4977 989.571 93.8774 989.781 94.2138C989.992 94.5501 990.276 94.8345 990.612 95.0455C991.331 95.4979 992.167 95.7301 993.016 95.7135C993.768 95.7286 994.513 95.5601 995.185 95.2228C995.755 94.9507 996.246 94.5377 996.612 94.0228L999.936 96.4971C999.195 97.5274 998.2 98.3497 997.049 98.8847C995.771 99.4867 994.372 99.7886 992.959 99.7672V99.7672ZM989.515 90.1464H995.808C995.664 89.4702 995.259 88.8777 994.682 88.4969C994.11 88.1203 993.438 87.9236 992.752 87.932C992.028 87.9203 991.314 88.1102 990.69 88.4804C990.39 88.6617 990.13 88.9033 989.928 89.1901C989.726 89.4769 989.585 89.8025 989.515 90.1464V90.1464Z" fill="white"/>
<path d="M1008.75 105.665H1003.92L1007.01 98.6008L1000.82 84.6129H1005.73L1009.41 93.7883L1013.07 84.5923H1018.02L1008.75 105.665Z" fill="white"/>
<path d="M838.844 79.2471H838.695C837.852 79.2471 837.043 79.582 836.447 80.178C835.851 80.7741 835.516 81.5826 835.516 82.4255V82.7656C835.518 84.9989 834.931 87.1933 833.815 89.1278C832.699 91.0623 831.093 92.6687 829.159 93.7854L811.678 103.871C809.745 104.986 807.553 105.574 805.321 105.574C803.089 105.574 800.897 104.986 798.964 103.871L781.482 93.7854C779.548 92.6687 777.942 91.0623 776.826 89.1278C775.711 87.1933 775.124 84.9989 775.125 82.7656V82.4255C775.125 81.5826 774.791 80.7741 774.195 80.178C773.598 79.582 772.79 79.2471 771.947 79.2471H771.798C770.955 79.2471 770.146 79.582 769.55 80.178C768.954 80.7741 768.619 81.5826 768.619 82.4255V86.5226C768.618 88.7559 769.204 90.9502 770.32 92.8847C771.436 94.8192 773.042 96.4256 774.976 97.5423L798.961 111.372C800.893 112.488 803.086 113.075 805.318 113.075C807.549 113.075 809.742 112.488 811.675 111.372L835.666 97.5423C837.599 96.4244 839.204 94.8177 840.319 92.8835C841.435 90.9493 842.023 88.7556 842.023 86.5226V82.4255C842.023 81.5826 841.688 80.7741 841.092 80.178C840.496 79.582 839.687 79.2471 838.844 79.2471V79.2471Z" fill="white"/>
<path d="M838.844 73.5707H838.695C837.852 73.5707 837.043 73.2358 836.447 72.6397C835.851 72.0436 835.516 71.2352 835.516 70.3922V69.4164C835.518 67.1831 834.931 64.9888 833.815 63.0543C832.699 61.1198 831.093 59.5133 829.159 58.3967L811.678 48.3114C809.745 47.1956 807.553 46.6081 805.321 46.6081C803.089 46.6081 800.897 47.1956 798.964 48.3114L781.482 58.3967C779.548 59.5133 777.942 61.1198 776.826 63.0543C775.711 64.9888 775.124 67.1831 775.125 69.4164V70.3922C775.125 71.2352 774.791 72.0436 774.195 72.6397C773.598 73.2358 772.79 73.5707 771.947 73.5707H771.798C770.955 73.5707 770.146 73.2358 769.55 72.6397C768.954 72.0436 768.619 71.2352 768.619 70.3922V65.6595C768.618 63.4262 769.204 61.2318 770.32 59.2973C771.436 57.3628 773.042 55.7564 774.976 54.6398L798.961 40.8103C800.893 39.6944 803.086 39.1069 805.318 39.1069C807.549 39.1069 809.742 39.6944 811.675 40.8103L835.666 54.6398C837.599 55.7576 839.204 57.3643 840.319 59.2986C841.435 61.2328 842.023 63.4265 842.023 65.6595V70.3922C842.023 71.2352 841.688 72.0436 841.092 72.6397C840.496 73.2358 839.687 73.5707 838.844 73.5707V73.5707Z" fill="white"/>
<path d="M823.976 70.198C822.043 69.0821 819.85 68.4946 817.619 68.4946C815.387 68.4946 813.195 69.0821 811.262 70.198L795.9 79.0659L790.081 75.7062C788.148 74.5904 785.955 74.0029 783.724 74.0029C781.492 74.0029 779.299 74.5904 777.367 75.7062L771.01 79.3678C771.268 79.3016 771.534 79.2674 771.801 79.2661H771.951C772.368 79.2661 772.781 79.3483 773.167 79.5081C773.553 79.6678 773.903 79.9019 774.198 80.1971C774.493 80.4922 774.727 80.8426 774.887 81.2282C775.047 81.6139 775.129 82.0272 775.129 82.4446V84.501L777.354 83.2297C779.169 82.1811 781.215 81.5976 783.31 81.531C785.405 81.4645 787.484 81.917 789.362 82.8482V82.8482C789.705 83.005 790.049 83.1671 790.392 83.3345C792.596 84.411 794.714 85.6553 796.727 87.0565L807.562 93.3117C809.496 94.4281 811.101 96.034 812.217 97.9679C813.333 99.9018 813.92 102.096 813.919 104.328V108.333L820.409 104.573V100.565C820.41 98.3322 819.824 96.1385 818.708 94.2046C817.592 92.2707 815.986 90.6648 814.052 89.5484L802.4 82.8196L811.255 77.7087C813.188 76.5928 815.381 76.0053 817.612 76.0053C819.844 76.0053 822.037 76.5928 823.969 77.7087L835.51 84.3834V82.4478C835.51 81.6048 835.845 80.7963 836.441 80.2002C837.037 79.6042 837.846 79.2693 838.689 79.2693H838.844C839.332 79.2658 839.814 79.3746 840.253 79.5871L823.976 70.198Z" fill="white"/>
<defs>
<linearGradient id="paint0_linear_605_105" x1="60" y1="76" x2="142" y2="76" gradientUnits="userSpaceOnUse">
<stop stop-color="#86CD74"/>
<stop offset="1" stop-color="#21B459"/>
</linearGradient>
</defs>
</svg>
