<svg width="17" height="16" viewBox="0 0 17 16" fill="none" xmlns="http://www.w3.org/2000/svg">
<path d="M0.263579 5.31253H3.58627V15.9999H0.263579V5.31253ZM1.92501 0C2.98699 0 3.85003 0.863042 3.85003 1.9268C3.85003 2.98948 2.98699 3.85252 1.92501 3.85252C0.860548 3.85252 0 2.98948 0 1.9268C0 0.863042 0.860548 0 1.92501 0Z" fill="#FFFAEE"/>
<path d="M5.66956 5.31262H8.85565V6.77406H8.90107C9.34452 5.93346 10.4284 5.04797 12.0439 5.04797C15.4075 5.04797 16.0284 7.26079 16.0284 10.1384V16H12.7082V10.8027C12.7082 9.563 12.6866 7.96889 10.9821 7.96889C9.25351 7.96889 8.98976 9.32008 8.98976 10.7137V16H5.66956V5.31262Z" fill="#FFFAEE"/>
</svg>
