<svg width="44" height="34" viewBox="0 0 44 34" fill="none" xmlns="http://www.w3.org/2000/svg">
<path d="M22.0899 2.81154C21.1745 1.89616 16.7938 0 12.6745 0C7.83609 0 1.16686 1.96154 1.16686 8.23846C1.16686 20.9231 20.3245 19.2885 20.3245 27.0039C20.3245 31.0577 16.9245 33.3462 13.0669 33.3462C7.63993 33.3462 4.69763 27.8538 1.88609 22.2308H0.970703L1.55916 29.75C2.60532 30.9923 6.98609 34 12.5438 34C19.4745 34 25.3592 29.8808 25.3592 23.4731C25.3592 11.6385 6.00532 12.2269 6.00532 4.70769C6.00532 1.37308 9.86301 0.65385 12.0861 0.65385C17.3169 0.65385 19.6707 5.23077 22.1553 9.93846H23.0707L22.0899 2.81154Z" fill="#302D42"/>
<path d="M28.3066 17H40.7801L43.3451 10.506H42.9937C41.764 12.444 39.1287 16.694 36.7043 16.694H32.2419L42.3964 0H30.3446L28.658 4.59H29.0094C30.2392 2.652 32.0311 0.34 34.4555 0.34H38.4611L28.3066 17Z" fill="#302D42"/>
<rect x="31.707" y="25.16" width="8.84" height="8.84" rx="4.42" fill="#F6002F"/>
</svg>
