<svg width="141" height="103" viewBox="0 0 141 103" fill="none" xmlns="http://www.w3.org/2000/svg">
<g filter="url(#filter0_d_48_1207)">
<ellipse cx="67.6025" cy="51.9078" rx="61.5" ry="41" transform="rotate(-170.159 67.6025 51.9078)" fill="#302D42"/>
</g>
<ellipse cx="67.1098" cy="51.8224" rx="56" ry="36" transform="rotate(-170.159 67.1098 51.8224)" fill="#FFFAEE"/>
<ellipse cx="67.1098" cy="51.8224" rx="53" ry="33" transform="rotate(-170.159 67.1098 51.8224)" fill="#302D42"/>
<path d="M76.3139 61.1032C65.8521 59.2885 58.838 49.3376 60.6534 38.872C61.0979 36.3092 62.037 33.955 63.3462 31.8858C55.9804 33.5381 49.97 39.4631 48.5992 47.3656C46.7848 57.8254 53.7971 67.7819 64.2589 69.5967C72.1643 70.968 79.7624 67.3016 83.7999 60.9234C81.4134 61.4572 78.8785 61.5488 76.3132 61.1039L76.3139 61.1032Z" fill="#FFFAEE"/>
<path d="M32.7211 49.9168L33.1522 49.9916C33.3006 49.5627 33.5793 49.1142 33.9985 48.6477C34.8352 47.7251 36.3354 46.9387 37.5156 46.9002L37.5903 46.4692C37.0472 46.2481 36.5375 45.8954 36.0697 45.423C35.1153 44.4646 34.5141 43.1762 34.5195 42.1093L34.0884 42.0345C33.8914 42.5607 33.5646 43.0432 33.1025 43.5128C32.1904 44.4435 30.9159 45.0259 29.7081 45.1019L29.6333 45.5329C30.1969 45.7576 30.7424 46.1482 31.2508 46.691C32.2865 47.7904 32.7203 49.0075 32.7211 49.9168Z" fill="#FFFAEE"/>
<path d="M98.7354 61.368L99.1664 61.4428C99.3148 61.0139 99.5935 60.5653 100.013 60.0989C100.849 59.1762 102.35 58.3898 103.53 58.3514L103.605 57.9203C103.061 57.6992 102.552 57.3465 102.084 56.8742C101.13 55.9157 100.528 54.6273 100.534 53.5605L100.103 53.4857C99.9057 54.0118 99.5788 54.4943 99.1168 54.9639C98.2047 55.8947 96.9301 56.4771 95.7223 56.553L95.6475 56.9841C96.2112 57.2087 96.7566 57.5993 97.2651 58.1421C98.3007 59.2416 98.7345 60.4586 98.7354 61.368Z" fill="#FFFAEE"/>
<defs>
<filter id="filter0_d_48_1207" x="2.59784" y="0.155853" width="138.009" height="99.5039" filterUnits="userSpaceOnUse" color-interpolation-filters="sRGB">
<feFlood flood-opacity="0" result="BackgroundImageFix"/>
<feColorMatrix in="SourceAlpha" type="matrix" values="0 0 0 0 0 0 0 0 0 0 0 0 0 0 0 0 0 0 127 0" result="hardAlpha"/>
<feOffset dx="4" dy="-2"/>
<feGaussianBlur stdDeviation="4"/>
<feComposite in2="hardAlpha" operator="out"/>
<feColorMatrix type="matrix" values="0 0 0 0 0 0 0 0 0 0 0 0 0 0 0 0 0 0 0.25 0"/>
<feBlend mode="normal" in2="BackgroundImageFix" result="effect1_dropShadow_48_1207"/>
<feBlend mode="normal" in="SourceGraphic" in2="effect1_dropShadow_48_1207" result="shape"/>
</filter>
</defs>
</svg>
