<svg width="21" height="21" viewBox="0 0 21 21" fill="none" xmlns="http://www.w3.org/2000/svg">
<path d="M20.0456 1.34882C20.9493 2.25255 20.9493 3.7173 20.0451 4.6215L13.9692 10.6975L20.0454 16.7737C20.9494 17.6777 20.9491 19.1427 20.0453 20.046C19.5934 20.4979 19.0016 20.724 18.4098 20.7239C17.8172 20.7237 17.2253 20.498 16.7739 20.0461L10.6968 13.9695L4.6201 20.0462C4.16851 20.4977 3.57696 20.7236 2.9841 20.7236C2.39271 20.7235 1.80073 20.4975 1.34882 20.0456C0.44506 19.1423 0.444902 17.6774 1.34898 16.7733L7.42503 10.6973L1.34873 4.62097C0.444897 3.71713 0.445063 2.25171 1.3487 1.34808C2.25231 0.444961 3.71638 0.444669 4.62057 1.34792L10.6975 7.42483L16.7742 1.34812C17.6781 0.445155 19.1416 0.445772 20.0456 1.34882Z" fill="#FFFAEE"/>
</svg>
