<svg width="1080" height="611" viewBox="0 0 1080 611" fill="none" xmlns="http://www.w3.org/2000/svg">
<rect width="1080" height="611" rx="5" fill="white"/>
<rect x="581" y="31" width="197" height="0.999991" transform="rotate(90 581 31)" fill="#302D42" fill-opacity="0.5"/>
<path d="M46.46 40V28.96H45.05V40H46.46ZM48.0556 36.325C48.0556 38.59 49.6756 40.18 51.8806 40.18C54.0706 40.18 55.6906 38.59 55.6906 36.325C55.6906 34.06 54.0706 32.47 51.8806 32.47C49.6756 32.47 48.0556 34.06 48.0556 36.325ZM49.4806 36.325C49.4806 34.795 50.4556 33.73 51.8806 33.73C53.2906 33.73 54.2806 34.795 54.2806 36.325C54.2806 37.855 53.2906 38.92 51.8806 38.92C50.4556 38.92 49.4806 37.855 49.4806 36.325ZM56.7864 36.145C56.7864 38.2 58.1064 39.805 60.1914 39.805C61.3464 39.805 62.3064 39.295 62.7864 38.44V39.91C62.7864 41.305 61.8864 42.205 60.5064 42.205C59.2764 42.205 58.4664 41.575 58.2864 40.495H56.8764C57.1464 42.355 58.5114 43.48 60.5064 43.48C62.7564 43.48 64.1814 42.01 64.1814 39.7V32.665H62.9214L62.8164 33.91C62.3514 32.995 61.4364 32.455 60.2514 32.455C58.1214 32.455 56.7864 34.075 56.7864 36.145ZM58.1964 36.115C58.1964 34.765 59.0364 33.685 60.4464 33.685C61.8864 33.685 62.7264 34.705 62.7264 36.115C62.7264 37.555 61.8564 38.575 60.4314 38.575C59.0514 38.575 58.1964 37.495 58.1964 36.115ZM65.7363 36.325C65.7363 38.59 67.3563 40.18 69.5613 40.18C71.7513 40.18 73.3713 38.59 73.3713 36.325C73.3713 34.06 71.7513 32.47 69.5613 32.47C67.3563 32.47 65.7363 34.06 65.7363 36.325ZM67.1613 36.325C67.1613 34.795 68.1363 33.73 69.5613 33.73C70.9713 33.73 71.9613 34.795 71.9613 36.325C71.9613 37.855 70.9713 38.92 69.5613 38.92C68.1363 38.92 67.1613 37.855 67.1613 36.325Z" fill="#302D42"/>
<path d="M44.54 279.34C44.54 281.65 45.965 283.18 48.125 283.18C49.895 283.18 51.26 282.115 51.545 280.525H50.135C49.88 281.395 49.13 281.92 48.125 281.92C46.79 281.92 45.935 280.9 45.935 279.325C45.935 277.735 46.85 276.715 48.185 276.715C49.13 276.715 49.88 277.21 50.12 278.14H51.53C51.275 276.505 49.985 275.455 48.14 275.455C45.995 275.455 44.54 277.045 44.54 279.34ZM52.5527 279.325C52.5527 281.59 54.1727 283.18 56.3777 283.18C58.5677 283.18 60.1877 281.59 60.1877 279.325C60.1877 277.06 58.5677 275.47 56.3777 275.47C54.1727 275.47 52.5527 277.06 52.5527 279.325ZM53.9777 279.325C53.9777 277.795 54.9527 276.73 56.3777 276.73C57.7877 276.73 58.7777 277.795 58.7777 279.325C58.7777 280.855 57.7877 281.92 56.3777 281.92C54.9527 281.92 53.9777 280.855 53.9777 279.325ZM63.1885 283V271.96H61.7785V283H63.1885ZM64.7841 279.325C64.7841 281.59 66.4041 283.18 68.6091 283.18C70.7991 283.18 72.4191 281.59 72.4191 279.325C72.4191 277.06 70.7991 275.47 68.6091 275.47C66.4041 275.47 64.7841 277.06 64.7841 279.325ZM66.2091 279.325C66.2091 277.795 67.1841 276.73 68.6091 276.73C70.0191 276.73 71.0091 277.795 71.0091 279.325C71.0091 280.855 70.0191 281.92 68.6091 281.92C67.1841 281.92 66.2091 280.855 66.2091 279.325ZM78.8742 275.665V279.535C78.8742 281.11 78.1692 281.935 76.8792 281.935C75.7992 281.935 75.1242 281.335 75.1242 279.76V275.665H73.7142V280.225C73.7142 282.025 74.6742 283.18 76.3842 283.18C77.4642 283.18 78.4392 282.655 78.8592 281.89L79.0092 283H80.2692V275.665H78.8742ZM86.5149 275.605C86.2299 275.545 86.0199 275.515 85.7649 275.515C84.7599 275.515 84.0249 276.025 83.7249 276.79L83.6349 275.68H82.3149V283H83.7249V279.115C83.7249 277.705 84.5499 276.895 85.8849 276.895H86.5149V275.605ZM87.2374 280.87C87.2374 282.265 88.3324 283.18 90.0574 283.18C91.7974 283.18 92.9974 282.295 92.9974 280.9C92.9974 279.805 92.3824 279.235 91.1374 278.935L89.8474 278.62C89.1274 278.44 88.7674 278.11 88.7674 277.615C88.7674 276.94 89.2624 276.55 90.1474 276.55C91.0024 276.55 91.4974 277.015 91.5274 277.75H92.8774C92.8474 276.355 91.7974 275.455 90.1924 275.455C88.5724 275.455 87.4324 276.31 87.4324 277.66C87.4324 278.74 88.0474 279.385 89.3524 279.7L90.6424 280C91.4074 280.195 91.6474 280.495 91.6474 280.99C91.6474 281.665 91.0774 282.07 90.0874 282.07C89.1574 282.07 88.5874 281.62 88.5874 280.87H87.2374Z" fill="#302D42"/>
<path d="M619.24 32.665V33.85H620.32V40H621.73V33.85H623.47V32.665H621.73V31.495C621.73 30.7 621.97 30.235 622.885 30.235H623.515V29.02C623.23 28.975 622.915 28.96 622.645 28.96C621.31 28.96 620.32 29.695 620.32 31.495V32.665H619.24ZM624.081 36.325C624.081 38.59 625.701 40.18 627.906 40.18C630.096 40.18 631.716 38.59 631.716 36.325C631.716 34.06 630.096 32.47 627.906 32.47C625.701 32.47 624.081 34.06 624.081 36.325ZM625.506 36.325C625.506 34.795 626.481 33.73 627.906 33.73C629.316 33.73 630.306 34.795 630.306 36.325C630.306 37.855 629.316 38.92 627.906 38.92C626.481 38.92 625.506 37.855 625.506 36.325ZM634.687 40V36.115C634.687 34.69 635.452 33.745 636.772 33.745C637.852 33.745 638.542 34.345 638.542 35.83V40H639.952V35.515C639.952 33.64 639.067 32.455 637.132 32.455C636.097 32.455 635.167 32.95 634.702 33.79L634.552 32.665H633.277V40H634.687ZM643.975 40V33.85H645.415V32.665H643.975V30.37H642.565V32.665H641.125V33.85H642.565V40H643.975Z" fill="#302D42"/>
<path d="M630 84.2C628.48 84.2 627.227 83.7133 626.24 82.74C625.267 81.7667 624.78 80.52 624.78 79C624.78 77.52 625.273 76.2867 626.26 75.3C627.247 74.3 628.493 73.8 630 73.8C631.387 73.8 632.533 74.24 633.44 75.12C634.36 76 634.82 77.2133 634.82 78.76C634.82 79.0267 634.813 79.2667 634.8 79.48H626.94C626.993 80.2933 627.307 80.9533 627.88 81.46C628.453 81.9533 629.167 82.2 630.02 82.2C631.3 82.2 632.253 81.6933 632.88 80.68L634.56 81.88C633.6 83.4267 632.08 84.2 630 84.2ZM627.04 77.88H632.6C632.48 77.1867 632.167 76.6467 631.66 76.26C631.167 75.86 630.587 75.66 629.92 75.66C629.227 75.66 628.607 75.8533 628.06 76.24C627.527 76.6267 627.187 77.1733 627.04 77.88ZM640.662 84.2C639.515 84.2 638.608 83.82 637.942 83.06C637.275 82.2867 636.942 81.26 636.942 79.98V74H639.142V79.62C639.142 80.42 639.315 81.0533 639.662 81.52C640.008 81.9733 640.502 82.2 641.142 82.2C641.888 82.2 642.482 81.92 642.922 81.36C643.362 80.7867 643.582 79.9733 643.582 78.92V74H645.782V84H643.582V82.64C642.995 83.68 642.022 84.2 640.662 84.2ZM653.302 84.2C651.795 84.2 650.535 83.7067 649.522 82.72C648.522 81.72 648.022 80.48 648.022 79C648.022 77.52 648.522 76.2867 649.522 75.3C650.535 74.3 651.795 73.8 653.302 73.8C654.328 73.8 655.248 74.0467 656.062 74.54C656.888 75.0333 657.522 75.7067 657.962 76.56L656.042 77.6C655.788 77.0667 655.422 76.64 654.942 76.32C654.462 76 653.915 75.84 653.302 75.84C652.422 75.84 651.695 76.1467 651.122 76.76C650.548 77.36 650.262 78.1067 650.262 79C650.262 79.8933 650.548 80.6467 651.122 81.26C651.695 81.86 652.422 82.16 653.302 82.16C653.915 82.16 654.462 82 654.942 81.68C655.422 81.36 655.788 80.9333 656.042 80.4L657.962 81.44C657.522 82.2933 656.888 82.9667 656.062 83.46C655.248 83.9533 654.328 84.2 653.302 84.2ZM659.972 84V69H662.172V84H659.972ZM666.228 71.82C665.828 71.82 665.482 71.68 665.188 71.4C664.895 71.1067 664.748 70.7533 664.748 70.34C664.748 69.94 664.895 69.6 665.188 69.32C665.482 69.0267 665.828 68.88 666.228 68.88C666.642 68.88 666.988 69.0267 667.268 69.32C667.548 69.6 667.688 69.94 667.688 70.34C667.688 70.7533 667.548 71.1067 667.268 71.4C666.988 71.68 666.642 71.82 666.228 71.82ZM665.128 84V74H667.328V84H665.128ZM674.385 84.2C673.025 84.2 671.878 83.6933 670.945 82.68C670.025 81.6667 669.565 80.44 669.565 79C669.565 77.56 670.025 76.3333 670.945 75.32C671.878 74.3067 673.025 73.8 674.385 73.8C675.065 73.8 675.691 73.9533 676.265 74.26C676.838 74.5533 677.278 74.9133 677.585 75.34V69H679.785V84H677.585V82.66C677.278 83.0867 676.838 83.4533 676.265 83.76C675.691 84.0533 675.065 84.2 674.385 84.2ZM672.645 81.28C673.205 81.8933 673.918 82.2 674.785 82.2C675.651 82.2 676.365 81.8933 676.925 81.28C677.485 80.6667 677.765 79.9067 677.765 79C677.765 78.0933 677.485 77.3333 676.925 76.72C676.365 76.1067 675.651 75.8 674.785 75.8C673.918 75.8 673.205 76.1067 672.645 76.72C672.085 77.3333 671.805 78.0933 671.805 79C671.805 79.9067 672.085 80.6667 672.645 81.28ZM692.032 84.2C690.526 84.2 689.266 83.7067 688.252 82.72C687.252 81.72 686.752 80.48 686.752 79C686.752 77.52 687.252 76.2867 688.252 75.3C689.266 74.3 690.526 73.8 692.032 73.8C693.059 73.8 693.979 74.0467 694.792 74.54C695.619 75.0333 696.252 75.7067 696.692 76.56L694.772 77.6C694.519 77.0667 694.152 76.64 693.672 76.32C693.192 76 692.646 75.84 692.032 75.84C691.152 75.84 690.426 76.1467 689.852 76.76C689.279 77.36 688.992 78.1067 688.992 79C688.992 79.8933 689.279 80.6467 689.852 81.26C690.426 81.86 691.152 82.16 692.032 82.16C692.646 82.16 693.192 82 693.672 81.68C694.152 81.36 694.519 80.9333 694.772 80.4L696.692 81.44C696.252 82.2933 695.619 82.9667 694.792 83.46C693.979 83.9533 693.059 84.2 692.032 84.2ZM699.803 71.82C699.403 71.82 699.056 71.68 698.763 71.4C698.469 71.1067 698.323 70.7533 698.323 70.34C698.323 69.94 698.469 69.6 698.763 69.32C699.056 69.0267 699.403 68.88 699.803 68.88C700.216 68.88 700.563 69.0267 700.843 69.32C701.123 69.6 701.263 69.94 701.263 70.34C701.263 70.7533 701.123 71.1067 700.843 71.4C700.563 71.68 700.216 71.82 699.803 71.82ZM698.703 84V74H700.903V84H698.703ZM703.859 84V74H706.059V75.78C706.246 75.22 706.586 74.7667 707.079 74.42C707.586 74.0733 708.126 73.9 708.699 73.9C709.046 73.9 709.332 73.9267 709.559 73.98V76.24C709.239 76.12 708.872 76.06 708.459 76.06C707.792 76.06 707.226 76.3333 706.759 76.88C706.292 77.4133 706.059 78.16 706.059 79.12V84H703.859ZM715.665 84.2C714.158 84.2 712.898 83.7067 711.885 82.72C710.885 81.72 710.385 80.48 710.385 79C710.385 77.52 710.885 76.2867 711.885 75.3C712.898 74.3 714.158 73.8 715.665 73.8C716.692 73.8 717.612 74.0467 718.425 74.54C719.252 75.0333 719.885 75.7067 720.325 76.56L718.405 77.6C718.152 77.0667 717.785 76.64 717.305 76.32C716.825 76 716.278 75.84 715.665 75.84C714.785 75.84 714.058 76.1467 713.485 76.76C712.912 77.36 712.625 78.1067 712.625 79C712.625 79.8933 712.912 80.6467 713.485 81.26C714.058 81.86 714.785 82.16 715.665 82.16C716.278 82.16 716.825 82 717.305 81.68C717.785 81.36 718.152 80.9333 718.405 80.4L720.325 81.44C719.885 82.2933 719.252 82.9667 718.425 83.46C717.612 83.9533 716.692 84.2 715.665 84.2ZM725.915 84.2C724.769 84.2 723.862 83.82 723.195 83.06C722.529 82.2867 722.195 81.26 722.195 79.98V74H724.395V79.62C724.395 80.42 724.569 81.0533 724.915 81.52C725.262 81.9733 725.755 82.2 726.395 82.2C727.142 82.2 727.735 81.92 728.175 81.36C728.615 80.7867 728.835 79.9733 728.835 78.92V74H731.035V84H728.835V82.64C728.249 83.68 727.275 84.2 725.915 84.2ZM733.996 84V69H736.196V84H733.996ZM743.252 84.2C741.892 84.2 740.745 83.6933 739.812 82.68C738.892 81.6667 738.432 80.44 738.432 79C738.432 77.56 738.892 76.3333 739.812 75.32C740.745 74.3067 741.892 73.8 743.252 73.8C743.932 73.8 744.559 73.9533 745.132 74.26C745.705 74.5533 746.145 74.9133 746.452 75.34V74H748.652V84H746.452V82.66C746.145 83.0867 745.705 83.4533 745.132 83.76C744.559 84.0533 743.932 84.2 743.252 84.2ZM741.512 81.28C742.072 81.8933 742.785 82.2 743.652 82.2C744.519 82.2 745.232 81.8933 745.792 81.28C746.352 80.6667 746.632 79.9067 746.632 79C746.632 78.0933 746.352 77.3333 745.792 76.72C745.232 76.1067 744.519 75.8 743.652 75.8C742.785 75.8 742.072 76.1067 741.512 76.72C740.952 77.3333 740.672 78.0933 740.672 79C740.672 79.9067 740.952 80.6667 741.512 81.28ZM751.632 84V74H753.832V75.78C754.019 75.22 754.359 74.7667 754.852 74.42C755.359 74.0733 755.899 73.9 756.472 73.9C756.819 73.9 757.106 73.9267 757.332 73.98V76.24C757.012 76.12 756.646 76.06 756.232 76.06C755.566 76.06 754.999 76.3333 754.532 76.88C754.066 77.4133 753.832 78.16 753.832 79.12V84H751.632ZM768.869 84.2C768.189 84.2 767.555 84.0533 766.969 83.76C766.395 83.4533 765.955 83.0867 765.649 82.66V84H763.449V69H765.649V75.34C765.955 74.9133 766.395 74.5533 766.969 74.26C767.555 73.9533 768.189 73.8 768.869 73.8C770.229 73.8 771.369 74.3067 772.289 75.32C773.222 76.3333 773.689 77.56 773.689 79C773.689 80.44 773.222 81.6667 772.289 82.68C771.369 83.6933 770.229 84.2 768.869 84.2ZM768.469 82.2C769.335 82.2 770.049 81.8933 770.609 81.28C771.169 80.6667 771.449 79.9067 771.449 79C771.449 78.0933 771.169 77.3333 770.609 76.72C770.049 76.1067 769.335 75.8 768.469 75.8C767.589 75.8 766.869 76.1067 766.309 76.72C765.749 77.3333 765.469 78.0933 765.469 79C765.469 79.9067 765.749 80.6667 766.309 81.28C766.869 81.8933 767.589 82.2 768.469 82.2ZM624.08 125L630.28 110.8H632.32L638.52 125H636.08L634.46 121.28H628.1L626.5 125H624.08ZM631.28 113.96L629 119.2H633.56L631.28 113.96ZM646.475 125.2C645.115 125.2 643.968 124.693 643.035 123.68C642.115 122.667 641.655 121.44 641.655 120C641.655 118.56 642.115 117.333 643.035 116.32C643.968 115.307 645.115 114.8 646.475 114.8C647.155 114.8 647.781 114.953 648.355 115.26C648.928 115.553 649.368 115.913 649.675 116.34V115H651.875V125H649.675V123.66C649.368 124.087 648.928 124.453 648.355 124.76C647.781 125.053 647.155 125.2 646.475 125.2ZM644.735 122.28C645.295 122.893 646.008 123.2 646.875 123.2C647.741 123.2 648.455 122.893 649.015 122.28C649.575 121.667 649.855 120.907 649.855 120C649.855 119.093 649.575 118.333 649.015 117.72C648.455 117.107 647.741 116.8 646.875 116.8C646.008 116.8 645.295 117.107 644.735 117.72C644.175 118.333 643.895 119.093 643.895 120C643.895 120.907 644.175 121.667 644.735 122.28ZM664.822 125V110.8H669.722C670.962 110.8 671.975 111.18 672.762 111.94C673.562 112.7 673.962 113.627 673.962 114.72C673.962 115.893 673.522 116.807 672.642 117.46C674.162 118.087 674.922 119.213 674.922 120.84C674.922 122.027 674.489 123.02 673.622 123.82C672.769 124.607 671.675 125 670.342 125H664.822ZM667.162 122.86H670.282C671.029 122.86 671.609 122.673 672.022 122.3C672.435 121.927 672.642 121.433 672.642 120.82C672.642 120.22 672.435 119.733 672.022 119.36C671.609 118.973 671.029 118.78 670.282 118.78H667.162V122.86ZM667.162 116.78H669.602C670.229 116.78 670.729 116.6 671.102 116.24C671.475 115.88 671.662 115.42 671.662 114.86C671.662 114.327 671.475 113.873 671.102 113.5C670.729 113.127 670.229 112.94 669.602 112.94H667.162V116.78ZM685.041 125.2C684.361 125.2 683.727 125.053 683.141 124.76C682.567 124.453 682.127 124.087 681.821 123.66V125H679.621V110H681.821V116.34C682.127 115.913 682.567 115.553 683.141 115.26C683.727 114.953 684.361 114.8 685.041 114.8C686.401 114.8 687.541 115.307 688.461 116.32C689.394 117.333 689.861 118.56 689.861 120C689.861 121.44 689.394 122.667 688.461 123.68C687.541 124.693 686.401 125.2 685.041 125.2ZM684.641 123.2C685.507 123.2 686.221 122.893 686.781 122.28C687.341 121.667 687.621 120.907 687.621 120C687.621 119.093 687.341 118.333 686.781 117.72C686.221 117.107 685.507 116.8 684.641 116.8C683.761 116.8 683.041 117.107 682.481 117.72C681.921 118.333 681.641 119.093 681.641 120C681.641 120.907 681.921 121.667 682.481 122.28C683.041 122.893 683.761 123.2 684.641 123.2ZM708.508 125.24C706.468 125.24 704.735 124.533 703.308 123.12C701.881 121.693 701.168 119.953 701.168 117.9C701.168 115.847 701.881 114.113 703.308 112.7C704.735 111.273 706.468 110.56 708.508 110.56C709.881 110.56 711.128 110.887 712.248 111.54C713.368 112.18 714.255 113.053 714.908 114.16L712.888 115.32C711.861 113.653 710.401 112.82 708.508 112.82C707.108 112.82 705.928 113.313 704.968 114.3C704.008 115.287 703.528 116.487 703.528 117.9C703.528 119.313 704.008 120.513 704.968 121.5C705.928 122.487 707.108 122.98 708.508 122.98C710.401 122.98 711.861 122.147 712.888 120.48L714.908 121.64C714.255 122.747 713.368 123.627 712.248 124.28C711.128 124.92 709.881 125.24 708.508 125.24ZM723.946 125.2C722.44 125.2 721.18 124.707 720.166 123.72C719.166 122.72 718.666 121.48 718.666 120C718.666 118.52 719.166 117.287 720.166 116.3C721.18 115.3 722.44 114.8 723.946 114.8C724.973 114.8 725.893 115.047 726.706 115.54C727.533 116.033 728.166 116.707 728.606 117.56L726.686 118.6C726.433 118.067 726.066 117.64 725.586 117.32C725.106 117 724.56 116.84 723.946 116.84C723.066 116.84 722.34 117.147 721.766 117.76C721.193 118.36 720.906 119.107 720.906 120C720.906 120.893 721.193 121.647 721.766 122.26C722.34 122.86 723.066 123.16 723.946 123.16C724.56 123.16 725.106 123 725.586 122.68C726.066 122.36 726.433 121.933 726.686 121.4L728.606 122.44C728.166 123.293 727.533 123.967 726.706 124.46C725.893 124.953 724.973 125.2 723.946 125.2ZM740.584 125V110.8H744.944C747.05 110.8 748.817 111.48 750.244 112.84C751.67 114.2 752.384 115.887 752.384 117.9C752.384 119.913 751.67 121.6 750.244 122.96C748.817 124.32 747.05 125 744.944 125H740.584ZM742.924 122.82H744.944C746.437 122.82 747.65 122.353 748.584 121.42C749.53 120.487 750.004 119.313 750.004 117.9C750.004 116.487 749.53 115.313 748.584 114.38C747.65 113.447 746.437 112.98 744.944 112.98H742.924V122.82ZM761.299 125.2C759.939 125.2 758.792 124.693 757.859 123.68C756.939 122.667 756.479 121.44 756.479 120C756.479 118.56 756.939 117.333 757.859 116.32C758.792 115.307 759.939 114.8 761.299 114.8C761.979 114.8 762.605 114.953 763.179 115.26C763.752 115.553 764.192 115.913 764.499 116.34V110H766.699V125H764.499V123.66C764.192 124.087 763.752 124.453 763.179 124.76C762.605 125.053 761.979 125.2 761.299 125.2ZM759.559 122.28C760.119 122.893 760.832 123.2 761.699 123.2C762.565 123.2 763.279 122.893 763.839 122.28C764.399 121.667 764.679 120.907 764.679 120C764.679 119.093 764.399 118.333 763.839 117.72C763.279 117.107 762.565 116.8 761.699 116.8C760.832 116.8 760.119 117.107 759.559 117.72C758.999 118.333 758.719 119.093 758.719 120C758.719 120.907 758.999 121.667 759.559 122.28ZM779.646 125V110.8H788.186V113.04H781.986V116.68H786.986V118.92H781.986V122.76H788.186V125H779.646ZM797.305 125.2C795.785 125.2 794.531 124.713 793.545 123.74C792.571 122.767 792.085 121.52 792.085 120C792.085 118.52 792.578 117.287 793.565 116.3C794.551 115.3 795.798 114.8 797.305 114.8C798.691 114.8 799.838 115.24 800.745 116.12C801.665 117 802.125 118.213 802.125 119.76C802.125 120.027 802.118 120.267 802.105 120.48H794.245C794.298 121.293 794.611 121.953 795.185 122.46C795.758 122.953 796.471 123.2 797.325 123.2C798.605 123.2 799.558 122.693 800.185 121.68L801.865 122.88C800.905 124.427 799.385 125.2 797.305 125.2ZM794.345 118.88H799.905C799.785 118.187 799.471 117.647 798.965 117.26C798.471 116.86 797.891 116.66 797.225 116.66C796.531 116.66 795.911 116.853 795.365 117.24C794.831 117.627 794.491 118.173 794.345 118.88ZM814.353 125V110.8H822.793V113.04H816.693V116.7H821.493V118.92H816.693V125H814.353ZM828.022 125V116.96H825.942V115H828.022V113.32C828.022 112.24 828.342 111.4 828.982 110.8C829.622 110.187 830.442 109.88 831.442 109.88C832.055 109.88 832.602 109.96 833.082 110.12V112.08C832.775 111.947 832.382 111.88 831.902 111.88C831.315 111.88 830.888 112.013 830.622 112.28C830.355 112.533 830.222 112.967 830.222 113.58V115H833.082V116.96H830.222V125H828.022ZM851.075 125.24C848.848 125.24 847.008 124.54 845.555 123.14C844.115 121.74 843.395 119.993 843.395 117.9C843.395 115.833 844.101 114.093 845.515 112.68C846.941 111.267 848.715 110.56 850.835 110.56C853.101 110.56 854.935 111.273 856.335 112.7L854.735 114.36C853.708 113.333 852.408 112.82 850.835 112.82C849.368 112.82 848.155 113.313 847.195 114.3C846.235 115.273 845.755 116.473 845.755 117.9C845.755 119.367 846.235 120.58 847.195 121.54C848.168 122.5 849.455 122.98 851.055 122.98C852.575 122.98 853.708 122.673 854.455 122.06V118.9H850.895V116.7H856.735V123.2C856.121 123.867 855.308 124.373 854.295 124.72C853.281 125.067 852.208 125.24 851.075 125.24ZM864.188 122.06C864.761 122.633 865.468 122.92 866.308 122.92C867.148 122.92 867.855 122.633 868.428 122.06C869.001 121.473 869.288 120.74 869.288 119.86C869.288 118.98 869.001 118.253 868.428 117.68C867.855 117.093 867.148 116.8 866.308 116.8C865.468 116.8 864.761 117.093 864.188 117.68C863.615 118.253 863.328 118.98 863.328 119.86C863.328 120.74 863.615 121.473 864.188 122.06ZM866.108 129.38C865.135 129.38 864.235 129.213 863.408 128.88C862.581 128.56 861.921 128.113 861.428 127.54L862.768 125.96C863.661 126.933 864.768 127.42 866.088 127.42C866.955 127.42 867.675 127.14 868.248 126.58C868.821 126.033 869.108 125.273 869.108 124.3V123.38C868.788 123.833 868.341 124.207 867.768 124.5C867.195 124.793 866.575 124.94 865.908 124.94C864.561 124.94 863.421 124.453 862.488 123.48C861.568 122.493 861.108 121.287 861.108 119.86C861.108 118.447 861.568 117.253 862.488 116.28C863.421 115.293 864.561 114.8 865.908 114.8C866.575 114.8 867.195 114.947 867.768 115.24C868.341 115.52 868.788 115.887 869.108 116.34V115H871.308V124.32C871.308 125.987 870.828 127.247 869.868 128.1C868.921 128.953 867.668 129.38 866.108 129.38ZM884.236 125V110.8H886.576V116.68H893.596V110.8H895.936V125H893.596V118.9H886.576V125H884.236ZM903.774 125H901.574V110H903.774V116.36C904.4 115.32 905.414 114.8 906.814 114.8C907.974 114.8 908.9 115.18 909.594 115.94C910.287 116.7 910.634 117.713 910.634 118.98V125H908.434V119.34C908.434 118.54 908.247 117.92 907.874 117.48C907.5 117.027 906.994 116.8 906.354 116.8C905.594 116.8 904.974 117.087 904.494 117.66C904.014 118.233 903.774 119.04 903.774 120.08V125ZM923.416 125V110.8H925.756V125H923.416ZM932.498 112.82C932.098 112.82 931.751 112.68 931.458 112.4C931.165 112.107 931.018 111.753 931.018 111.34C931.018 110.94 931.165 110.6 931.458 110.32C931.751 110.027 932.098 109.88 932.498 109.88C932.911 109.88 933.258 110.027 933.538 110.32C933.818 110.6 933.958 110.94 933.958 111.34C933.958 111.753 933.818 112.107 933.538 112.4C933.258 112.68 932.911 112.82 932.498 112.82ZM931.398 125V115H933.598V125H931.398ZM948.975 125.24C947.735 125.24 946.695 124.88 945.855 124.16C945.029 123.427 944.615 122.393 944.615 121.06H946.935C946.935 121.687 947.135 122.18 947.535 122.54C947.935 122.887 948.415 123.06 948.975 123.06C949.549 123.06 950.022 122.88 950.395 122.52C950.782 122.16 950.975 121.62 950.975 120.9V110.8H953.315V121.1C953.315 122.487 952.902 123.527 952.075 124.22C951.262 124.9 950.229 125.24 948.975 125.24ZM961.141 115V126.06C961.141 127.127 960.821 127.947 960.181 128.52C959.554 129.093 958.754 129.38 957.781 129.38C957.407 129.38 957.094 129.36 956.841 129.32V127.4C957.027 127.427 957.207 127.44 957.381 127.44C958.421 127.44 958.941 126.873 958.941 125.74V115H961.141ZM960.041 112.82C959.641 112.82 959.294 112.68 959.001 112.4C958.707 112.107 958.561 111.753 958.561 111.34C958.561 110.94 958.707 110.6 959.001 110.32C959.294 110.027 959.641 109.88 960.041 109.88C960.454 109.88 960.801 110.027 961.081 110.32C961.361 110.6 961.501 110.94 961.501 111.34C961.501 111.753 961.361 112.107 961.081 112.4C960.801 112.68 960.454 112.82 960.041 112.82ZM983.28 125L976.38 118.36V125H974.06V110.8H976.38V116.92L982.08 110.8H985.04L978.72 117.6L986.44 125H983.28ZM996.913 125L992.133 120.18V125H989.933V110H992.133V118.8L995.953 115H998.733L994.273 119.46L999.733 125H996.913ZM625.74 152V137.8H628.08V149.76H634.58V152H625.74ZM638.918 152V137H641.118V152H638.918ZM654.041 137.8H656.181L661.141 144.52L666.121 137.8H668.261V152H665.901V141.82L661.161 148.26L656.381 141.8V152H654.041V137.8ZM686.599 152V146.38C686.599 145.567 686.446 144.933 686.139 144.48C685.846 144.027 685.406 143.8 684.819 143.8C684.112 143.8 683.546 144.073 683.119 144.62C682.692 145.167 682.466 145.933 682.439 146.92V152H680.239V146.38C680.239 145.567 680.086 144.933 679.779 144.48C679.486 144.027 679.046 143.8 678.459 143.8C677.726 143.8 677.139 144.087 676.699 144.66C676.272 145.233 676.059 146.04 676.059 147.08V152H673.859V142H676.059V143.36C676.672 142.32 677.619 141.8 678.899 141.8C680.406 141.8 681.439 142.46 681.999 143.78C682.279 143.153 682.706 142.667 683.279 142.32C683.866 141.973 684.506 141.8 685.199 141.8C686.319 141.8 687.199 142.18 687.839 142.94C688.479 143.7 688.799 144.727 688.799 146.02V152H686.599ZM713.96 152H711.92L703.92 141.78V152H701.58V137.8H703.62L711.6 148V137.8H713.96V152ZM719.562 152V142H721.762V143.36C722.389 142.32 723.402 141.8 724.802 141.8C725.962 141.8 726.889 142.18 727.582 142.94C728.275 143.7 728.622 144.713 728.622 145.98V152H726.422V146.34C726.422 145.54 726.235 144.92 725.862 144.48C725.489 144.027 724.982 143.8 724.342 143.8C723.582 143.8 722.962 144.087 722.482 144.66C722.002 145.233 721.762 146.04 721.762 147.08V152H719.562ZM747.844 149.98C749.231 149.98 750.404 149.487 751.364 148.5C752.324 147.513 752.804 146.313 752.804 144.9C752.804 143.487 752.324 142.287 751.364 141.3C750.404 140.313 749.231 139.82 747.844 139.82C746.444 139.82 745.264 140.313 744.304 141.3C743.344 142.287 742.864 143.487 742.864 144.9C742.864 146.313 743.344 147.513 744.304 148.5C745.264 149.487 746.444 149.98 747.844 149.98ZM753.044 150.1C751.617 151.527 749.884 152.24 747.844 152.24C745.804 152.24 744.071 151.533 742.644 150.12C741.217 148.693 740.504 146.953 740.504 144.9C740.504 142.847 741.217 141.113 742.644 139.7C744.071 138.273 745.804 137.56 747.844 137.56C749.884 137.56 751.617 138.273 753.044 139.7C754.471 141.127 755.184 142.86 755.184 144.9C755.184 146.94 754.471 148.673 753.044 150.1ZM768.232 150.7C767.232 151.7 765.992 152.2 764.512 152.2C763.032 152.2 761.785 151.7 760.772 150.7C759.772 149.687 759.272 148.453 759.272 147C759.272 145.547 759.772 144.32 760.772 143.32C761.785 142.307 763.032 141.8 764.512 141.8C765.992 141.8 767.232 142.307 768.232 143.32C769.245 144.32 769.752 145.547 769.752 147C769.752 148.453 769.245 149.687 768.232 150.7ZM764.512 150.16C765.378 150.16 766.092 149.86 766.652 149.26C767.225 148.647 767.512 147.893 767.512 147C767.512 146.107 767.225 145.36 766.652 144.76C766.092 144.147 765.378 143.84 764.512 143.84C763.632 143.84 762.905 144.147 762.332 144.76C761.772 145.36 761.492 146.107 761.492 147C761.492 147.893 761.772 148.647 762.332 149.26C762.905 149.86 763.632 150.16 764.512 150.16ZM789.991 139.14C790.911 140.02 791.371 141.12 791.371 142.44C791.371 143.76 790.911 144.867 789.991 145.76C789.071 146.64 787.891 147.08 786.451 147.08H784.271V152H781.931V137.8H786.451C787.891 137.8 789.071 138.247 789.991 139.14ZM788.351 144.2C788.831 143.733 789.071 143.147 789.071 142.44C789.071 141.733 788.831 141.153 788.351 140.7C787.885 140.233 787.245 140 786.431 140H784.271V144.88H786.431C787.245 144.88 787.885 144.653 788.351 144.2ZM797.973 156.18H795.773V142H797.973V143.34C798.28 142.913 798.72 142.553 799.293 142.26C799.88 141.953 800.513 141.8 801.193 141.8C802.553 141.8 803.693 142.307 804.613 143.32C805.546 144.333 806.013 145.56 806.013 147C806.013 148.44 805.546 149.667 804.613 150.68C803.693 151.693 802.553 152.2 801.193 152.2C800.513 152.2 799.88 152.053 799.293 151.76C798.72 151.453 798.28 151.087 797.973 150.66V156.18ZM800.793 150.2C801.66 150.2 802.373 149.893 802.933 149.28C803.493 148.667 803.773 147.907 803.773 147C803.773 146.093 803.493 145.333 802.933 144.72C802.373 144.107 801.66 143.8 800.793 143.8C799.913 143.8 799.193 144.107 798.633 144.72C798.073 145.333 797.793 146.093 797.793 147C797.793 147.907 798.073 148.667 798.633 149.28C799.193 149.893 799.913 150.2 800.793 150.2ZM824.66 152.24C822.62 152.24 820.887 151.533 819.46 150.12C818.034 148.693 817.32 146.953 817.32 144.9C817.32 142.847 818.034 141.113 819.46 139.7C820.887 138.273 822.62 137.56 824.66 137.56C826.7 137.56 828.434 138.273 829.86 139.7C831.287 141.127 832 142.86 832 144.9C832 146.5 831.534 147.947 830.6 149.24L833.76 152H830.5L829.08 150.78C827.814 151.753 826.34 152.24 824.66 152.24ZM824.66 149.98C825.607 149.98 826.494 149.727 827.32 149.22L825.12 147.28L826.52 145.66L828.82 147.68C829.354 146.827 829.62 145.9 829.62 144.9C829.62 143.487 829.14 142.287 828.18 141.3C827.22 140.313 826.047 139.82 824.66 139.82C823.26 139.82 822.08 140.313 821.12 141.3C820.16 142.287 819.68 143.487 819.68 144.9C819.68 146.313 820.16 147.513 821.12 148.5C822.08 149.487 823.26 149.98 824.66 149.98ZM846.679 156.18H844.479V150.66C844.173 151.087 843.733 151.453 843.159 151.76C842.586 152.053 841.959 152.2 841.279 152.2C839.919 152.2 838.773 151.693 837.839 150.68C836.919 149.667 836.459 148.44 836.459 147C836.459 145.56 836.919 144.333 837.839 143.32C838.773 142.307 839.919 141.8 841.279 141.8C841.959 141.8 842.586 141.953 843.159 142.26C843.733 142.553 844.173 142.913 844.479 143.34V142H846.679V156.18ZM839.539 149.28C840.099 149.893 840.813 150.2 841.679 150.2C842.546 150.2 843.259 149.893 843.819 149.28C844.379 148.667 844.659 147.907 844.659 147C844.659 146.093 844.379 145.333 843.819 144.72C843.259 144.107 842.546 143.8 841.679 143.8C840.813 143.8 840.099 144.107 839.539 144.72C838.979 145.333 838.699 146.093 838.699 147C838.699 147.907 838.979 148.667 839.539 149.28ZM859.627 152V137.8H864.747C866.053 137.8 867.093 138.18 867.867 138.94C868.653 139.687 869.047 140.653 869.047 141.84C869.047 142.84 868.767 143.667 868.207 144.32C867.66 144.96 866.867 145.393 865.827 145.62L871.107 152H868.227L863.027 145.76H861.967V152H859.627ZM861.967 143.72H864.467C865.16 143.72 865.707 143.56 866.107 143.24C866.507 142.907 866.707 142.44 866.707 141.84C866.707 141.24 866.507 140.78 866.107 140.46C865.707 140.127 865.16 139.96 864.467 139.96H861.967V143.72ZM874.757 152V142H876.957V143.78C877.144 143.22 877.484 142.767 877.977 142.42C878.484 142.073 879.024 141.9 879.597 141.9C879.944 141.9 880.231 141.927 880.457 141.98V144.24C880.137 144.12 879.771 144.06 879.357 144.06C878.691 144.06 878.124 144.333 877.657 144.88C877.191 145.413 876.957 146.16 876.957 147.12V152H874.757ZM895.794 152.24C894.66 152.24 893.64 152.007 892.734 151.54C891.827 151.073 891.16 150.453 890.734 149.68L892.574 148.22C893.36 149.433 894.46 150.04 895.874 150.04C896.554 150.04 897.107 149.88 897.534 149.56C897.96 149.227 898.174 148.8 898.174 148.28C898.174 147.333 897.5 146.613 896.154 146.12L894.594 145.56C893.447 145.147 892.6 144.62 892.054 143.98C891.507 143.327 891.234 142.52 891.234 141.56C891.234 140.347 891.667 139.38 892.534 138.66C893.4 137.927 894.507 137.56 895.854 137.56C897.654 137.56 899.087 138.207 900.154 139.5L898.534 141.08C897.8 140.2 896.9 139.76 895.834 139.76C895.207 139.76 894.674 139.907 894.234 140.2C893.807 140.493 893.594 140.893 893.594 141.4C893.594 141.893 893.754 142.287 894.074 142.58C894.407 142.86 894.967 143.147 895.754 143.44L897.194 143.98C898.287 144.393 899.12 144.933 899.694 145.6C900.267 146.267 900.547 147.113 900.534 148.14C900.534 149.367 900.094 150.36 899.214 151.12C898.334 151.867 897.194 152.24 895.794 152.24ZM908.406 152.2C907.486 152.2 906.673 152.027 905.966 151.68C905.259 151.32 904.733 150.787 904.386 150.08L906.006 148.92C906.206 149.347 906.526 149.687 906.966 149.94C907.406 150.18 907.886 150.3 908.406 150.3C908.819 150.3 909.159 150.207 909.426 150.02C909.706 149.833 909.846 149.573 909.846 149.24C909.846 148.947 909.733 148.707 909.506 148.52C909.293 148.333 908.893 148.147 908.306 147.96L907.426 147.72C905.653 147.24 904.779 146.22 904.806 144.66C904.806 143.793 905.146 143.1 905.826 142.58C906.506 142.06 907.359 141.8 908.386 141.8C909.933 141.8 911.059 142.367 911.766 143.5L910.246 144.66C909.739 143.98 909.106 143.64 908.346 143.64C907.986 143.64 907.673 143.727 907.406 143.9C907.139 144.06 907.006 144.287 907.006 144.58C907.006 144.847 907.093 145.073 907.266 145.26C907.439 145.447 907.753 145.613 908.206 145.76L909.226 146.06C910.159 146.34 910.859 146.72 911.326 147.2C911.793 147.667 912.026 148.3 912.026 149.1C912.026 150.047 911.686 150.8 911.006 151.36C910.326 151.92 909.459 152.2 908.406 152.2ZM926.391 152V140.04H922.271V137.8H932.871V140.04H928.731V152H926.391ZM940.562 152.1C939.549 152.1 938.722 151.82 938.082 151.26C937.456 150.687 937.142 149.86 937.142 148.78V143.96H935.062V142H937.142V139.22H939.342V142H942.202V143.96H939.342V148.42C939.342 149.033 939.476 149.473 939.742 149.74C940.009 149.993 940.436 150.12 941.022 150.12C941.502 150.12 941.896 150.053 942.202 149.92V151.88C941.722 152.027 941.176 152.1 940.562 152.1ZM959.756 152.24C958.062 152.24 956.696 151.713 955.656 150.66C954.616 149.607 954.096 148.2 954.096 146.44V137.8H956.436V146.48C956.436 147.587 956.736 148.447 957.336 149.06C957.936 149.673 958.742 149.98 959.756 149.98C960.769 149.98 961.569 149.673 962.156 149.06C962.756 148.447 963.056 147.587 963.056 146.48V137.8H965.396V146.44C965.396 148.187 964.869 149.593 963.816 150.66C962.762 151.713 961.409 152.24 959.756 152.24ZM974.275 152.2C973.128 152.2 972.222 151.82 971.555 151.06C970.888 150.287 970.555 149.26 970.555 147.98V142H972.755V147.62C972.755 148.42 972.928 149.053 973.275 149.52C973.622 149.973 974.115 150.2 974.755 150.2C975.502 150.2 976.095 149.92 976.535 149.36C976.975 148.787 977.195 147.973 977.195 146.92V142H979.395V152H977.195V150.64C976.608 151.68 975.635 152.2 974.275 152.2ZM996.037 152L990.077 137.8H992.637L997.057 148.42L1001.46 137.8H1004.04L998.077 152H996.037ZM1010.94 152L1006.42 142H1008.86L1011.9 149.02L1014.96 142H1017.42L1012.88 152H1010.94ZM636.84 179L633.54 170.32L630.24 179H628.08L624.42 164.8H626.88L629.46 175.12L633.54 164.56L637.6 175.12L640.2 164.8H642.68L639 179H636.84ZM655.562 179L653.363 172.54L651.183 179H649.103L645.743 169H648.062L650.223 175.9L652.523 169H654.203L656.463 175.9L658.663 169H661.003L657.643 179H655.562ZM672.952 179H670.132L675.552 171.8L670.392 164.8H673.152L676.972 169.98L680.812 164.8H683.572L678.412 171.82L683.832 179H681.032L676.992 173.68L672.952 179ZM694.485 179L691.785 175.62L689.085 179H686.405L690.385 174.02L686.625 169H689.245L691.765 172.36L694.285 169H696.925L693.165 174.02L697.145 179H694.485ZM711.964 179V173L706.584 164.8H709.324L713.124 170.68L716.944 164.8H719.704L714.304 173.02V179H711.964ZM725.926 183.18H723.506L725.646 178.46L721.346 169H723.766L726.826 176.08L729.906 169H732.346L725.926 183.18ZM742.376 179V177.42L749.616 167.04H742.556V164.8H752.796V166.38L745.516 176.76H752.956V179H742.376ZM756.948 179V177.26L762.188 171H757.028V169H765.028V170.76L759.788 177H765.188V179H756.948Z" fill="#302D42"/>
<rect x="46" y="59" width="152" height="152" rx="5" fill="#FEC06A"/>
<rect x="390" y="59" width="152" height="152" rx="5" fill="#FEC06A"/>
<rect x="218.5" y="59.5" width="151" height="151" rx="4.5" fill="white" stroke="#FEC06A"/>
<path d="M112.479 119.701C113.906 121.08 114.619 122.785 114.619 124.815C114.619 126.844 113.906 128.549 112.479 129.928C111.072 131.288 109.308 131.967 107.188 131.967H104.75V138.618H100.023V117.632H107.188C109.308 117.632 111.072 118.322 112.479 119.701ZM110.041 124.815C110.041 124.026 109.764 123.376 109.209 122.864C108.674 122.332 107.98 122.066 107.128 122.066H104.75V127.563H107.128C107.96 127.563 108.654 127.297 109.209 126.765C109.764 126.233 110.041 125.583 110.041 124.815Z" fill="white"/>
<path d="M119.255 121.829C118.502 121.829 117.848 121.563 117.294 121.031C116.739 120.479 116.461 119.819 116.461 119.051C116.461 118.282 116.739 117.632 117.294 117.1C117.848 116.548 118.502 116.272 119.255 116.272C120.048 116.272 120.712 116.548 121.247 117.1C121.802 117.632 122.08 118.282 122.08 119.051C122.08 119.819 121.802 120.479 121.247 121.031C120.712 121.563 120.048 121.829 119.255 121.829ZM117.026 138.618V123.839H121.515V138.618H117.026Z" fill="white"/>
<path d="M125.212 138.618V123.839H129.701V125.347C130.553 124.125 131.931 123.514 133.833 123.514C135.637 123.514 137.044 124.115 138.054 125.317C139.085 126.519 139.6 128.105 139.6 130.076V138.618H135.111V130.844C135.111 128.657 134.309 127.563 132.704 127.563C131.812 127.563 131.088 127.888 130.534 128.539C129.979 129.189 129.701 130.155 129.701 131.435V138.618H125.212Z" fill="white"/>
<path d="M150.11 138.943C147.891 138.943 146.018 138.214 144.492 136.756C142.966 135.298 142.203 133.455 142.203 131.228C142.203 129.002 142.966 127.159 144.492 125.701C146.018 124.243 147.891 123.514 150.11 123.514C151.636 123.514 153.043 123.908 154.332 124.696C155.62 125.484 156.581 126.529 157.215 127.829L153.291 129.898C152.637 128.421 151.577 127.682 150.11 127.682C149.159 127.682 148.357 128.017 147.703 128.687C147.049 129.356 146.722 130.204 146.722 131.228C146.722 132.253 147.049 133.1 147.703 133.77C148.357 134.44 149.159 134.775 150.11 134.775C151.577 134.775 152.637 134.036 153.291 132.559L157.215 134.628C156.581 135.928 155.62 136.972 154.332 137.761C153.043 138.549 151.636 138.943 150.11 138.943Z" fill="white"/>
<path d="M164.102 138.618H159.613V116.45H164.102V125.347C164.954 124.125 166.331 123.514 168.234 123.514C170.037 123.514 171.444 124.115 172.455 125.317C173.485 126.519 174.001 128.105 174.001 130.076V138.618H169.512V130.844C169.512 128.657 168.709 127.563 167.104 127.563C166.212 127.563 165.489 127.888 164.934 128.539C164.379 129.189 164.102 130.155 164.102 131.435V138.618Z" fill="white"/>
<path d="M100.023 152.258V144.796H104.196V145.973H101.18V147.896H103.553V149.063H101.18V152.258H100.023Z" fill="white"/>
<path d="M108.844 151.575C108.349 152.1 107.736 152.363 107.005 152.363C106.273 152.363 105.657 152.1 105.156 151.575C104.662 151.042 104.415 150.394 104.415 149.631C104.415 148.867 104.662 148.222 105.156 147.697C105.657 147.164 106.273 146.898 107.005 146.898C107.736 146.898 108.349 147.164 108.844 147.697C109.345 148.222 109.595 148.867 109.595 149.631C109.595 150.394 109.345 151.042 108.844 151.575ZM107.005 151.291C107.433 151.291 107.786 151.133 108.063 150.818C108.346 150.496 108.488 150.1 108.488 149.631C108.488 149.161 108.346 148.769 108.063 148.453C107.786 148.131 107.433 147.97 107.005 147.97C106.57 147.97 106.211 148.131 105.927 148.453C105.65 148.769 105.512 149.161 105.512 149.631C105.512 150.1 105.65 150.496 105.927 150.818C106.211 151.133 106.57 151.291 107.005 151.291Z" fill="white"/>
<path d="M114.762 151.575C114.268 152.1 113.655 152.363 112.923 152.363C112.192 152.363 111.575 152.1 111.074 151.575C110.58 151.042 110.333 150.394 110.333 149.631C110.333 148.867 110.58 148.222 111.074 147.697C111.575 147.164 112.192 146.898 112.923 146.898C113.655 146.898 114.268 147.164 114.762 147.697C115.263 148.222 115.513 148.867 115.513 149.631C115.513 150.394 115.263 151.042 114.762 151.575ZM112.923 151.291C113.352 151.291 113.704 151.133 113.981 150.818C114.264 150.496 114.406 150.1 114.406 149.631C114.406 149.161 114.264 148.769 113.981 148.453C113.704 148.131 113.352 147.97 112.923 147.97C112.488 147.97 112.129 148.131 111.846 148.453C111.569 148.769 111.43 149.161 111.43 149.631C111.43 150.1 111.569 150.496 111.846 150.818C112.129 151.133 112.488 151.291 112.923 151.291Z" fill="white"/>
<path d="M118.634 152.363C117.962 152.363 117.395 152.097 116.933 151.564C116.479 151.032 116.251 150.387 116.251 149.631C116.251 148.874 116.479 148.229 116.933 147.697C117.395 147.164 117.962 146.898 118.634 146.898C118.97 146.898 119.28 146.979 119.563 147.14C119.847 147.294 120.064 147.483 120.216 147.707V144.376H121.303V152.258H120.216V151.554C120.064 151.778 119.847 151.971 119.563 152.132C119.28 152.286 118.97 152.363 118.634 152.363ZM117.774 150.829C118.051 151.151 118.403 151.312 118.832 151.312C119.26 151.312 119.613 151.151 119.89 150.829C120.166 150.506 120.305 150.107 120.305 149.631C120.305 149.154 120.166 148.755 119.89 148.432C119.613 148.11 119.26 147.949 118.832 147.949C118.403 147.949 118.051 148.11 117.774 148.432C117.497 148.755 117.359 149.154 117.359 149.631C117.359 150.107 117.497 150.506 117.774 150.829Z" fill="white"/>
<path d="M125.232 152.258V144.796H127.387C128.429 144.796 129.302 145.153 130.007 145.868C130.712 146.583 131.065 147.469 131.065 148.527C131.065 149.585 130.712 150.471 130.007 151.186C129.302 151.901 128.429 152.258 127.387 152.258H125.232ZM126.389 151.112H127.387C128.125 151.112 128.725 150.867 129.186 150.377C129.654 149.886 129.888 149.27 129.888 148.527C129.888 147.784 129.654 147.168 129.186 146.677C128.725 146.187 128.125 145.942 127.387 145.942H126.389V151.112Z" fill="white"/>
<path d="M134.444 152.363C133.692 152.363 133.073 152.107 132.585 151.596C132.104 151.084 131.863 150.429 131.863 149.631C131.863 148.853 132.107 148.205 132.595 147.686C133.083 147.161 133.699 146.898 134.444 146.898C135.129 146.898 135.696 147.129 136.144 147.592C136.599 148.054 136.826 148.692 136.826 149.504C136.826 149.645 136.823 149.771 136.816 149.883H132.931C132.957 150.31 133.112 150.657 133.396 150.923C133.679 151.182 134.032 151.312 134.453 151.312C135.086 151.312 135.557 151.046 135.867 150.513L136.698 151.144C136.223 151.957 135.472 152.363 134.444 152.363ZM132.98 149.042H135.729C135.67 148.678 135.515 148.394 135.264 148.191C135.02 147.98 134.734 147.875 134.404 147.875C134.061 147.875 133.755 147.977 133.485 148.18C133.221 148.383 133.053 148.671 132.98 149.042Z" fill="white"/>
<path d="M137.944 152.258V144.376H139.032V152.258H137.944Z" fill="white"/>
<path d="M141.037 145.857C140.839 145.857 140.668 145.784 140.523 145.637C140.378 145.483 140.305 145.297 140.305 145.08C140.305 144.87 140.378 144.691 140.523 144.544C140.668 144.39 140.839 144.312 141.037 144.312C141.241 144.312 141.412 144.39 141.551 144.544C141.689 144.691 141.758 144.87 141.758 145.08C141.758 145.297 141.689 145.483 141.551 145.637C141.412 145.784 141.241 145.857 141.037 145.857ZM140.493 152.258V147.003H141.581V152.258H140.493Z" fill="white"/>
<path d="M144.584 152.258L142.35 147.003H143.556L145.059 150.692L146.571 147.003H147.787L145.543 152.258H144.584Z" fill="white"/>
<path d="M150.654 152.363C149.902 152.363 149.283 152.107 148.795 151.596C148.314 151.084 148.073 150.429 148.073 149.631C148.073 148.853 148.317 148.205 148.805 147.686C149.293 147.161 149.909 146.898 150.654 146.898C151.339 146.898 151.906 147.129 152.354 147.592C152.809 148.054 153.036 148.692 153.036 149.504C153.036 149.645 153.033 149.771 153.027 149.883H149.141C149.168 150.31 149.322 150.657 149.606 150.923C149.889 151.182 150.242 151.312 150.664 151.312C151.296 151.312 151.768 151.046 152.077 150.513L152.908 151.144C152.433 151.957 151.682 152.363 150.654 152.363ZM149.191 149.042H151.939C151.88 148.678 151.725 148.394 151.474 148.191C151.231 147.98 150.944 147.875 150.614 147.875C150.272 147.875 149.965 147.977 149.695 148.18C149.431 148.383 149.263 148.671 149.191 149.042Z" fill="white"/>
<path d="M154.154 152.258V147.003H155.242V147.938C155.334 147.644 155.502 147.406 155.746 147.224C155.997 147.042 156.264 146.95 156.547 146.95C156.718 146.95 156.86 146.964 156.972 146.993V148.18C156.814 148.117 156.633 148.086 156.428 148.086C156.099 148.086 155.819 148.229 155.588 148.516C155.357 148.797 155.242 149.189 155.242 149.694V152.258H154.154Z" fill="white"/>
<path d="M159.492 154.455H158.296L159.354 151.974L157.228 147.003H158.424L159.937 150.724L161.459 147.003H162.665L159.492 154.455Z" fill="white"/>
<path d="M87.4943 117.9C87.493 117.469 87.3268 117.056 87.0319 116.751C86.737 116.446 86.3375 116.274 85.9206 116.272H85.7778C85.3609 116.274 84.9614 116.446 84.6665 116.751C84.3716 117.056 84.2054 117.469 84.2041 117.9V127.709C83.6722 126.363 83.093 124.99 82.4464 123.591C81.6496 121.867 80.8253 120.249 79.9967 118.736C79.4629 117.543 78.9367 117.2 78.537 117.118C78.2876 117.066 77.5581 117.011 77.5469 117.01L76.9739 117.28C76.7376 117.5 76.5584 117.778 76.4527 118.089C76.3146 118.509 76.3146 118.964 76.4527 119.383C77.5045 121.255 78.567 123.34 79.5795 125.643C79.6163 125.725 79.6469 125.799 79.6805 125.877C79.0595 125.361 78.4196 124.845 77.7608 124.329C76.2862 123.179 74.8359 122.135 73.4255 121.188C72.4205 120.384 71.7988 120.331 71.4098 120.448C71.1604 120.522 70.4932 120.82 70.4826 120.824L70.0942 121.34C69.9823 121.649 69.9472 121.982 69.9919 122.308C70.0561 122.747 70.2587 123.15 70.568 123.457C72.1336 124.484 73.7816 125.658 75.4756 126.997C74.1584 127.114 72.8923 127.58 71.7995 128.35C70.7067 129.12 69.8239 130.168 69.2362 131.394V131.394C69.1199 131.623 69.0493 131.874 69.0285 132.132C69.0076 132.391 69.0371 132.65 69.115 132.896C69.193 133.143 69.3179 133.37 69.4823 133.565C69.6467 133.761 69.8473 133.92 70.0722 134.033C70.2971 134.147 70.5418 134.213 70.7917 134.226C71.0416 134.24 71.2916 134.202 71.5271 134.114C71.7625 134.027 71.9785 133.891 72.1622 133.715C72.346 133.539 72.4938 133.327 72.5969 133.091C72.9988 132.26 73.6616 131.596 74.4765 131.206C75.2914 130.817 76.21 130.725 77.0816 130.947C77.9533 131.169 78.7261 131.691 79.2734 132.428C79.8207 133.164 80.1098 134.071 80.0934 135C80.077 135.928 79.7561 136.824 79.1832 137.539C78.6103 138.254 77.8195 138.747 76.9407 138.936C76.0618 139.124 75.147 138.998 74.3464 138.578C73.5457 138.158 72.9069 137.469 72.5346 136.624C72.5277 136.634 72.5221 136.645 72.5159 136.656C72.2999 136.236 71.942 135.914 71.5105 135.75C71.0791 135.586 70.6044 135.593 70.1773 135.768C69.7503 135.944 69.4009 136.277 69.1959 136.702C68.991 137.128 68.945 137.617 69.0666 138.076V138.076C69.1121 138.184 69.1595 138.292 69.2094 138.398C69.2593 138.504 69.3112 138.609 69.3653 138.712C69.8788 139.691 70.5849 140.548 71.4379 141.227C72.2909 141.906 73.2719 142.393 74.3178 142.656C74.2679 142.683 74.478 142.731 74.6994 142.742C75.0181 142.806 75.3405 142.85 75.6646 142.873C76.4065 143.03 77.2801 143.367 78.042 144.078C78.4919 144.478 78.8521 144.975 79.0976 145.534C79.5247 146.538 79.3619 147.521 79.0976 149.176C78.9835 149.891 78.8482 150.475 78.7459 150.875L87.4239 146.868C87.4363 141.499 87.4484 136.13 87.46 130.761C87.4825 130.652 87.4943 117.9 87.4943 117.9Z" fill="white"/>
<path d="M284.479 126.429C285.906 127.808 286.619 129.512 286.619 131.542C286.619 133.572 285.906 135.276 284.479 136.655C283.072 138.015 281.308 138.695 279.188 138.695H276.75V145.345H272.023V124.36H279.188C281.308 124.36 283.072 125.049 284.479 126.429ZM282.041 131.542C282.041 130.754 281.764 130.104 281.209 129.591C280.674 129.059 279.98 128.793 279.128 128.793H276.75V134.291H279.128C279.96 134.291 280.654 134.025 281.209 133.493C281.764 132.961 282.041 132.311 282.041 131.542Z" fill="#FEC06A"/>
<path d="M291.255 128.557C290.502 128.557 289.848 128.291 289.294 127.759C288.739 127.207 288.461 126.547 288.461 125.778C288.461 125.01 288.739 124.36 289.294 123.828C289.848 123.276 290.502 123 291.255 123C292.048 123 292.712 123.276 293.247 123.828C293.802 124.36 294.08 125.01 294.08 125.778C294.08 126.547 293.802 127.207 293.247 127.759C292.712 128.291 292.048 128.557 291.255 128.557ZM289.026 145.345V130.567H293.515V145.345H289.026Z" fill="#FEC06A"/>
<path d="M297.212 145.345V130.567H301.701V132.074C302.553 130.852 303.931 130.242 305.833 130.242C307.637 130.242 309.044 130.843 310.054 132.045C311.085 133.247 311.6 134.833 311.6 136.803V145.345H307.111V137.572C307.111 135.385 306.309 134.291 304.704 134.291C303.812 134.291 303.088 134.616 302.534 135.266C301.979 135.917 301.701 136.882 301.701 138.163V145.345H297.212Z" fill="#FEC06A"/>
<path d="M322.11 145.67C319.891 145.67 318.018 144.941 316.492 143.483C314.966 142.025 314.203 140.183 314.203 137.956C314.203 135.729 314.966 133.887 316.492 132.429C318.018 130.971 319.891 130.242 322.11 130.242C323.636 130.242 325.043 130.636 326.332 131.424C327.62 132.212 328.581 133.256 329.215 134.557L325.291 136.626C324.637 135.148 323.577 134.409 322.11 134.409C321.159 134.409 320.357 134.744 319.703 135.414C319.049 136.084 318.722 136.931 318.722 137.956C318.722 138.981 319.049 139.828 319.703 140.498C320.357 141.168 321.159 141.503 322.11 141.503C323.577 141.503 324.637 140.764 325.291 139.286L329.215 141.355C328.581 142.656 327.62 143.7 326.332 144.488C325.043 145.276 323.636 145.67 322.11 145.67Z" fill="#FEC06A"/>
<path d="M336.102 145.345H331.613V123.177H336.102V132.074C336.954 130.852 338.331 130.242 340.234 130.242C342.037 130.242 343.444 130.843 344.455 132.045C345.485 133.247 346.001 134.833 346.001 136.803V145.345H341.512V137.572C341.512 135.385 340.709 134.291 339.104 134.291C338.212 134.291 337.489 134.616 336.934 135.266C336.379 135.917 336.102 136.882 336.102 138.163V145.345Z" fill="#FEC06A"/>
<path d="M259.494 117.9C259.493 117.469 259.327 117.056 259.032 116.751C258.737 116.446 258.338 116.274 257.921 116.272H257.778C257.361 116.274 256.961 116.446 256.667 116.751C256.372 117.056 256.205 117.469 256.204 117.9V127.709C255.672 126.363 255.093 124.99 254.446 123.591C253.65 121.867 252.825 120.249 251.997 118.736C251.463 117.543 250.937 117.2 250.537 117.118C250.288 117.066 249.558 117.011 249.547 117.01L248.974 117.28C248.738 117.5 248.558 117.778 248.453 118.089C248.315 118.509 248.315 118.964 248.453 119.383C249.505 121.255 250.567 123.34 251.58 125.643C251.616 125.725 251.647 125.799 251.681 125.877C251.06 125.361 250.42 124.845 249.761 124.329C248.286 123.179 246.836 122.135 245.426 121.188C244.42 120.384 243.799 120.331 243.41 120.448C243.16 120.522 242.493 120.82 242.483 120.824L242.094 121.34C241.982 121.649 241.947 121.982 241.992 122.308C242.056 122.747 242.259 123.15 242.568 123.457C244.134 124.484 245.782 125.658 247.476 126.997C246.158 127.114 244.892 127.58 243.8 128.35C242.707 129.12 241.824 130.168 241.236 131.394V131.394C241.12 131.623 241.049 131.874 241.028 132.132C241.008 132.391 241.037 132.65 241.115 132.896C241.193 133.143 241.318 133.37 241.482 133.565C241.647 133.761 241.847 133.92 242.072 134.033C242.297 134.147 242.542 134.213 242.792 134.226C243.042 134.24 243.292 134.202 243.527 134.114C243.762 134.027 243.978 133.891 244.162 133.715C244.346 133.539 244.494 133.327 244.597 133.091C244.999 132.26 245.662 131.596 246.476 131.206C247.291 130.817 248.21 130.725 249.082 130.947C249.953 131.169 250.726 131.691 251.273 132.428C251.821 133.164 252.11 134.071 252.093 135C252.077 135.928 251.756 136.824 251.183 137.539C250.61 138.254 249.82 138.747 248.941 138.936C248.062 139.124 247.147 138.998 246.346 138.578C245.546 138.158 244.907 137.469 244.535 136.624C244.528 136.634 244.522 136.645 244.516 136.656C244.3 136.236 243.942 135.914 243.511 135.75C243.079 135.586 242.604 135.593 242.177 135.768C241.75 135.944 241.401 136.277 241.196 136.702C240.991 137.128 240.945 137.617 241.067 138.076V138.076C241.112 138.184 241.16 138.292 241.209 138.398C241.259 138.504 241.311 138.609 241.365 138.712C241.879 139.691 242.585 140.548 243.438 141.227C244.291 141.906 245.272 142.393 246.318 142.656C246.268 142.683 246.478 142.731 246.699 142.742C247.018 142.806 247.34 142.85 247.665 142.873C248.407 143.03 249.28 143.367 250.042 144.078C250.492 144.478 250.852 144.975 251.098 145.534C251.525 146.538 251.362 147.521 251.098 149.176C250.983 149.891 250.848 150.475 250.746 150.875L259.424 146.868C259.436 141.499 259.448 136.13 259.46 130.761C259.482 130.652 259.494 117.9 259.494 117.9Z" fill="#FEC06A"/>
<path d="M484.268 103.281C484.266 102.411 483.931 101.578 483.336 100.963C482.742 100.349 481.937 100.002 481.097 100H480.809C479.969 100.002 479.164 100.349 478.57 100.963C477.976 101.578 477.641 102.411 477.638 103.281V123.045C476.566 120.333 475.399 117.567 474.096 114.748C472.49 111.274 470.829 108.014 469.16 104.965C468.084 102.56 467.024 101.869 466.218 101.705C465.716 101.599 464.246 101.489 464.223 101.486L463.068 102.03C462.592 102.474 462.231 103.035 462.018 103.66C461.74 104.506 461.74 105.423 462.018 106.269C464.138 110.04 466.279 114.242 468.319 118.882C468.393 119.048 468.455 119.198 468.523 119.355C467.271 118.315 465.982 117.275 464.654 116.234C461.683 113.917 458.76 111.813 455.918 109.906C453.893 108.284 452.64 108.179 451.856 108.414C451.353 108.564 450.009 109.163 449.988 109.172L449.205 110.213C448.98 110.835 448.909 111.505 448.999 112.163C449.128 113.046 449.536 113.86 450.16 114.478C453.315 116.548 456.635 118.913 460.049 121.611C457.395 121.846 454.843 122.785 452.641 124.337C450.439 125.889 448.66 128.002 447.476 130.471V130.471C447.242 130.933 447.099 131.44 447.057 131.96C447.015 132.48 447.075 133.003 447.232 133.499C447.389 133.995 447.641 134.453 447.972 134.847C448.303 135.24 448.707 135.561 449.161 135.79C449.614 136.019 450.107 136.151 450.61 136.179C451.114 136.207 451.618 136.131 452.092 135.954C452.567 135.777 453.002 135.503 453.372 135.149C453.743 134.794 454.04 134.367 454.248 133.891C455.058 132.217 456.394 130.878 458.036 130.093C459.678 129.308 461.529 129.124 463.285 129.571C465.042 130.019 466.599 131.07 467.702 132.554C468.805 134.038 469.388 135.866 469.355 137.737C469.321 139.609 468.675 141.414 467.52 142.855C466.366 144.296 464.772 145.288 463.001 145.669C461.23 146.049 459.387 145.795 457.774 144.949C456.16 144.103 454.873 142.714 454.123 141.01C454.109 141.031 454.097 141.053 454.085 141.075C453.65 140.229 452.928 139.579 452.059 139.249C451.19 138.919 450.233 138.932 449.372 139.286C448.512 139.64 447.808 140.311 447.395 141.169C446.982 142.026 446.889 143.012 447.134 143.936V143.936C447.226 144.154 447.321 144.372 447.422 144.586C447.522 144.799 447.627 145.01 447.736 145.218C448.771 147.191 450.194 148.917 451.913 150.286C453.631 151.655 455.608 152.636 457.716 153.166C457.615 153.22 458.039 153.316 458.485 153.338C459.127 153.469 459.777 153.557 460.43 153.602C461.925 153.92 463.685 154.598 465.221 156.031C466.127 156.838 466.853 157.84 467.348 158.966C468.208 160.988 467.88 162.97 467.348 166.304C467.118 167.745 466.845 168.921 466.639 169.728L484.126 161.654C484.151 150.835 484.176 140.015 484.199 129.196C484.244 128.977 484.268 103.281 484.268 103.281Z" fill="white"/>
<rect x="418.219" y="320" width="103.125" height="237.187" rx="5" fill="#FEC06A"/>
<rect x="279" y="320" width="103.125" height="237.187" rx="5" fill="#474747"/>
<rect x="697.5" y="320.5" width="102.125" height="236.187" rx="4.5" fill="white" stroke="#FEC06A"/>
<rect x="557.438" y="320" width="103.125" height="237.187" rx="5" fill="#D0D0D0"/>
<rect x="46" y="252" width="988" height="1" fill="#302D42" fill-opacity="0.5"/>
</svg>
