<svg width="808" height="632" viewBox="0 0 808 632" fill="none" xmlns="http://www.w3.org/2000/svg">
<rect width="808" height="632" fill="#3D3A4F"/>
<g filter="url(#filter0_d_2_2420)">
<rect x="71" y="61" width="667" height="510" rx="10" fill="#272532"/>
</g>
<circle cx="104" cy="91" r="8" fill="#FF5552"/>
<circle cx="128" cy="91" r="8" fill="#FFBE42"/>
<circle cx="152" cy="91" r="8" fill="#31C74A"/>
<path d="M389.21 98.18C388.598 98.18 388.028 98.048 387.5 97.784C386.984 97.508 386.588 97.178 386.312 96.794V98H384.332V84.5H386.312V90.206C386.588 89.822 386.984 89.498 387.5 89.234C388.028 88.958 388.598 88.82 389.21 88.82C390.434 88.82 391.46 89.276 392.288 90.188C393.128 91.1 393.548 92.204 393.548 93.5C393.548 94.796 393.128 95.9 392.288 96.812C391.46 97.724 390.434 98.18 389.21 98.18ZM388.85 96.38C389.63 96.38 390.272 96.104 390.776 95.552C391.28 95 391.532 94.316 391.532 93.5C391.532 92.684 391.28 92 390.776 91.448C390.272 90.896 389.63 90.62 388.85 90.62C388.058 90.62 387.41 90.896 386.906 91.448C386.402 92 386.15 92.684 386.15 93.5C386.15 94.316 386.402 95 386.906 95.552C387.41 96.104 388.058 96.38 388.85 96.38ZM399.254 98.18C398.03 98.18 396.998 97.724 396.158 96.812C395.33 95.9 394.916 94.796 394.916 93.5C394.916 92.204 395.33 91.1 396.158 90.188C396.998 89.276 398.03 88.82 399.254 88.82C399.866 88.82 400.43 88.958 400.946 89.234C401.462 89.498 401.858 89.822 402.134 90.206V89H404.114V98H402.134V96.794C401.858 97.178 401.462 97.508 400.946 97.784C400.43 98.048 399.866 98.18 399.254 98.18ZM397.688 95.552C398.192 96.104 398.834 96.38 399.614 96.38C400.394 96.38 401.036 96.104 401.54 95.552C402.044 95 402.296 94.316 402.296 93.5C402.296 92.684 402.044 92 401.54 91.448C401.036 90.896 400.394 90.62 399.614 90.62C398.834 90.62 398.192 90.896 397.688 91.448C397.184 92 396.932 92.684 396.932 93.5C396.932 94.316 397.184 95 397.688 95.552ZM409.659 98.18C408.831 98.18 408.099 98.024 407.463 97.712C406.827 97.388 406.353 96.908 406.041 96.272L407.499 95.228C407.679 95.612 407.967 95.918 408.363 96.146C408.759 96.362 409.191 96.47 409.659 96.47C410.031 96.47 410.337 96.386 410.577 96.218C410.829 96.05 410.955 95.816 410.955 95.516C410.955 95.252 410.853 95.036 410.649 94.868C410.457 94.7 410.097 94.532 409.569 94.364L408.777 94.148C407.181 93.716 406.395 92.798 406.419 91.394C406.419 90.614 406.725 89.99 407.337 89.522C407.949 89.054 408.717 88.82 409.641 88.82C411.033 88.82 412.047 89.33 412.683 90.35L411.315 91.394C410.859 90.782 410.289 90.476 409.605 90.476C409.281 90.476 408.999 90.554 408.759 90.71C408.519 90.854 408.399 91.058 408.399 91.322C408.399 91.562 408.477 91.766 408.633 91.934C408.789 92.102 409.071 92.252 409.479 92.384L410.397 92.654C411.237 92.906 411.867 93.248 412.287 93.68C412.707 94.1 412.917 94.67 412.917 95.39C412.917 96.242 412.611 96.92 411.999 97.424C411.387 97.928 410.607 98.18 409.659 98.18ZM416.951 98H414.971V84.5H416.951V90.224C417.515 89.288 418.427 88.82 419.687 88.82C420.731 88.82 421.565 89.162 422.189 89.846C422.813 90.53 423.125 91.442 423.125 92.582V98H421.145V92.906C421.145 92.186 420.977 91.628 420.641 91.232C420.305 90.824 419.849 90.62 419.273 90.62C418.589 90.62 418.031 90.878 417.599 91.394C417.167 91.91 416.951 92.636 416.951 93.572V98Z" fill="#3D3A4F"/>
<path fill-rule="evenodd" clip-rule="evenodd" d="M533.44 323.775H532.875C526.09 323.775 520.605 318.29 520.605 311.562V307.83C520.605 290.358 511.276 274.187 496.123 265.423L428.838 226.579C413.684 217.815 395.026 217.815 379.816 226.579L312.531 265.423C297.378 274.187 288.048 290.358 288.048 307.83V311.562C288.048 318.347 282.564 323.775 275.835 323.775H275.27C268.485 323.775 263 318.347 263 311.562V311.505V293.355C263 275.827 272.329 259.656 287.483 250.892L379.816 197.573C394.969 188.809 413.628 188.809 428.838 197.573L521.171 250.892C536.381 259.656 545.71 275.827 545.71 293.355V311.562C545.71 318.347 540.225 323.775 533.44 323.775ZM520.232 365.207L476.107 339.72C460.954 330.956 442.238 330.956 427.085 339.72L392.99 359.453L437.884 385.349C451.153 393.023 459.957 406.377 461.941 421.31L496.123 401.576C509.513 393.832 518.355 380.305 520.232 365.207ZM436.841 435.8C434.865 420.815 426.059 407.447 412.78 399.767L371.052 375.681C363.306 370.309 355.163 365.503 346.682 361.375C346.032 361.064 345.367 360.753 344.703 360.442C344.038 360.131 343.374 359.82 342.724 359.51H342.781C328.08 352.216 310.721 352.781 296.529 360.98L288.475 365.62C290.46 380.551 299.263 393.903 312.531 401.576L379.816 440.421C395.026 449.185 413.684 449.185 428.838 440.421L436.841 435.8ZM272.51 345.907L296.586 332.03C311.739 323.266 330.455 323.266 345.608 332.03L367.998 344.978L427.141 310.827C442.295 302.063 461.01 302.063 476.163 310.827L537.744 346.429C542.401 348.167 545.71 352.643 545.71 357.869V373.644C545.71 391.172 536.381 407.343 521.171 416.107L428.838 469.427C413.628 478.191 394.969 478.191 379.816 469.427L287.483 416.107C272.329 407.343 263 391.172 263 373.644V357.869V357.813C263 351.977 267.058 347.145 272.51 345.907Z" fill="white"/>
<defs>
<filter id="filter0_d_2_2420" x="21" y="15" width="767" height="610" filterUnits="userSpaceOnUse" color-interpolation-filters="sRGB">
<feFlood flood-opacity="0" result="BackgroundImageFix"/>
<feColorMatrix in="SourceAlpha" type="matrix" values="0 0 0 0 0 0 0 0 0 0 0 0 0 0 0 0 0 0 127 0" result="hardAlpha"/>
<feOffset dy="4"/>
<feGaussianBlur stdDeviation="25"/>
<feColorMatrix type="matrix" values="0 0 0 0 0 0 0 0 0 0 0 0 0 0 0 0 0 0 0.2 0"/>
<feBlend mode="normal" in2="BackgroundImageFix" result="effect1_dropShadow_2_2420"/>
<feBlend mode="normal" in="SourceGraphic" in2="effect1_dropShadow_2_2420" result="shape"/>
</filter>
</defs>
</svg>
